<?xml version="1.0" encoding="utf-8"?>
<!-- Generator: Adobe Illustrator 19.0.0, SVG Export Plug-In . SVG Version: 6.00 Build 0)  -->
<svg version="1.1" xmlns="http://www.w3.org/2000/svg" xmlns:xlink="http://www.w3.org/1999/xlink" x="0px" y="0px"
	 viewBox="0 0 83.6 256.5" style="enable-background:new 0 0 83.6 256.5;" xml:space="preserve">
<style type="text/css">
	.st0{display:none;}
	.st1{display:inline;}
	.st2{fill:#FFFFFF;stroke:#E6007E;stroke-width:4;stroke-miterlimit:10;}
	.st3{fill:#FFFFFF;stroke:#E6007E;stroke-width:4;stroke-linecap:round;stroke-linejoin:round;stroke-miterlimit:10;}
	.st4{fill:#FFFFFF;stroke:#000000;stroke-width:4;stroke-miterlimit:10;}
	.st5{fill:none;stroke:#000000;stroke-width:4;stroke-miterlimit:10;}
	.st6{display:none;fill:#FFFFFF;stroke:#000000;stroke-width:4;stroke-miterlimit:10;}
	.st7{display:inline;fill:#FFFFFF;stroke:#000000;stroke-width:4;stroke-miterlimit:10;}
	
		.st8{display:inline;fill:#FFFFFF;stroke:#000000;stroke-width:4;stroke-linecap:round;stroke-linejoin:round;stroke-miterlimit:10;}
	
		.st9{display:inline;fill:#E6C25C;stroke:#E6C25C;stroke-width:4;stroke-linecap:round;stroke-linejoin:round;stroke-miterlimit:10;}
	.st10{fill:#FFFFFF;stroke:#000000;stroke-width:4;stroke-linecap:round;stroke-linejoin:round;stroke-miterlimit:10;}
	.st11{fill:#FFFFFF;stroke:#E6C25C;stroke-width:4;stroke-linecap:round;stroke-linejoin:round;stroke-miterlimit:10;}
</style>
<g id="Calque_2" class="st0">
	<g id="XMLID_15_" class="st1">
		<path id="XMLID_20_" class="st2" d="M81.5,236.8V185c0.3-51.5-14.8-79.7-14.8-79.7C57.8,78.5,56,51.9,56,51.9
			c0-11.8,2.5-15.8,2.5-15.8c2.2-4.5,2.8-7,0-10.3c-1.4-1.6-1.3-6.6-1.3-6.6V8.8C57.3,1.5,41.8,2,41.8,2S26.3,1.5,26.3,8.8v10.5
			c0,0,0.1,5-1.3,6.6c-2.8,3.3-2.2,5.7,0,10.3c0,0,2.5,4,2.5,15.8c0,0-1.8,26.6-10.8,53.4c0,0-15,28.2-14.8,79.7v51.8
			c0,0-3,16.3,39.8,17.8C84.5,253,81.5,236.8,81.5,236.8z"/>
		<path id="XMLID_19_" class="st2" d="M81.5,231.1v-46.4c0-2.3,0-4.6-0.1-6.8c-1.6,0.3-23,3.7-39.7,3.7c-17,0-38.1-3.4-39.7-3.7
			c0,2.2-0.1,4.5-0.1,6.8v46.4c0.9,0.2,22.4,3.7,39.8,3.7C59.1,234.8,80.6,231.3,81.5,231.1z"/>
		<path id="XMLID_18_" class="st2" d="M66.8,105.3c-3.2-9.6-5.5-19.1-7.1-27.4C56.8,62.9,56,51.9,56,51.9c0-11.8,2.5-15.8,2.5-15.8
			c2.2-4.5,2.8-7,0-10.3c-1.4-1.6-1.3-6.6-1.3-6.6V8.8C57.3,1.5,41.8,2,41.8,2S26.3,1.5,26.3,8.8v10.5c0,0,0.1,5-1.3,6.6
			c-2.8,3.3-2.2,5.7,0,10.3c0,0,2.5,4,2.5,15.8c0,0-0.7,11-3.6,25.9c-1.6,8.3-3.9,17.9-7.1,27.4c0,0-0.1,0.3-0.4,0.8
			c7.6,1.1,16.3,1.7,25.4,1.7c9.2,0,17.8-0.6,25.4-1.7C66.9,105.5,66.8,105.3,66.8,105.3z"/>
		<circle id="XMLID_17_" class="st2" cx="41.8" cy="107.8" r="15.3"/>
		<path id="XMLID_16_" class="st3" d="M69.3,220.4v-26.7c0-1.3,0-2.6,0-3.9c-1.1,0.2-15.9,2.1-27.5,2.1c-11.8,0-26.4-2-27.5-2.1
			c0,1.3-0.1,2.6,0,3.9v26.7c0.7,0.1,15.5,2.1,27.6,2.1C53.8,222.5,68.7,220.5,69.3,220.4z"/>
	</g>
</g>
<g id="Calque_1">
	<g>
		<path class="st4" d="M81.5,236.8V185c0.3-51.5-14.8-79.7-14.8-79.7C57.8,78.5,56,51.9,56,51.9c0-11.8,2.5-15.8,2.5-15.8
			c2.2-4.5,2.8-7,0-10.3c-1.4-1.6-1.3-6.6-1.3-6.6V8.8C57.3,1.5,41.8,2,41.8,2S26.3,1.5,26.3,8.8v10.5c0,0,0.1,5-1.3,6.6
			c-2.8,3.3-2.2,5.7,0,10.3c0,0,2.5,4,2.5,15.8c0,0-1.8,26.6-10.8,53.4c0,0-15,28.2-14.8,79.7v51.8c0,0-3,16.3,39.8,17.8
			C84.5,253,81.5,236.8,81.5,236.8z"/>
		<path id="XMLID_21_" class="st5" d="M66.8,105.3c-3.2-9.6-5.5-19.1-7.1-27.4C56.8,62.9,56,51.9,56,51.9c0-11.8,2.5-15.8,2.5-15.8
			c2.2-4.5,2.8-7,0-10.3c-1.4-1.6-1.3-6.6-1.3-6.6V8.8C57.3,1.5,41.8,2,41.8,2S26.3,1.5,26.3,8.8v10.5c0,0,0.1,5-1.3,6.6
			c-2.8,3.3-2.2,5.7,0,10.3c0,0,2.5,4,2.5,15.8c0,0-0.7,11-3.6,25.9c-1.6,8.3-3.9,17.9-7.1,27.4c0,0-0.1,0.3-0.4,0.8
			c7.6,1.1,16.3,1.7,25.4,1.7c9.2,0,17.8-0.6,25.4-1.7C66.9,105.5,66.8,105.3,66.8,105.3z"/>
		<circle id="XMLID_22_" class="st6" cx="41.8" cy="107.8" r="15.3"/>
	</g>
	<g id="Calque_3" class="st0">
		<path id="XMLID_14_" class="st7" d="M81.5,231.1v-46.4c0-2.3,0-4.6-0.1-6.8c-1.6,0.3-23,3.7-39.7,3.7c-17,0-38.1-3.4-39.7-3.7
			c0,2.2-0.1,4.5-0.1,6.8v46.4c0.9,0.2,22.4,3.7,39.8,3.7C59.1,234.8,80.6,231.3,81.5,231.1z"/>
		<path id="XMLID_23_" class="st8" d="M69.3,220.4v-26.7c0-1.3,0-2.6,0-3.9c-1.1,0.2-15.9,2.1-27.5,2.1c-11.8,0-26.4-2-27.5-2.1
			c0,1.3-0.1,2.6,0,3.9v26.7c0.7,0.1,15.5,2.1,27.6,2.1C53.8,222.5,68.7,220.5,69.3,220.4z"/>
		<line id="XMLID_26_" class="st9" x1="30.8" y1="211.6" x2="52.8" y2="211.6"/>
		<line id="XMLID_27_" class="st9" x1="25" y1="201.1" x2="58.6" y2="201.1"/>
	</g>
	<g id="Calque_4">
		<path id="XMLID_31_" class="st10" d="M63,226.3v-20.5c0-1,0-25.1,0-26.1c-0.9,0.1-12.2,1.6-21.1,1.6c-9.1,0-20.3-1.5-21.1-1.6
			c0,1,0,25.1,0,26.1v20.5c0.5,0.1,12,1.6,21.2,1.6C51,227.9,62.5,226.3,63,226.3z"/>
		<line id="XMLID_30_" class="st11" x1="28.6" y1="209.7" x2="55" y2="209.7"/>
		<line id="XMLID_29_" class="st11" x1="33.1" y1="219.2" x2="50.4" y2="219.2"/>
		<line id="XMLID_28_" class="st11" x1="28.6" y1="200.1" x2="55" y2="200.1"/>
		<line id="XMLID_25_" class="st11" x1="28.6" y1="190.6" x2="55" y2="190.6"/>
	</g>
</g>
</svg>
