<?xml version="1.0" encoding="utf-8"?>
<!-- Generator: Adobe Illustrator 19.0.0, SVG Export Plug-In . SVG Version: 6.00 Build 0)  -->
<svg version="1.1" xmlns="http://www.w3.org/2000/svg" xmlns:xlink="http://www.w3.org/1999/xlink" x="0px" y="0px"
	 viewBox="0 0 342.9 119.9" style="enable-background:new 0 0 342.9 119.9;" xml:space="preserve">
<style type="text/css">
	.st0{fill:#E5C25C;}
	.st1{display:none;}
	.st2{display:inline;fill:none;}
	.st3{display:inline;fill:#444444;}
	.st4{display:inline;}
	.st5{fill:#444444;}
</style>
<g id="Calque_1">
	<g id="XMLID_5_">
		<rect id="XMLID_11_" y="0.3" class="st0" width="7.3" height="119.4"/>
		<rect id="XMLID_10_" y="0.3" class="st0" width="20.3" height="7.3"/>
		<rect id="XMLID_9_" y="112.6" class="st0" width="20.3" height="7.3"/>
	</g>
	<g id="XMLID_12_">
		<rect id="XMLID_8_" x="335.7" class="st0" width="7.3" height="119.9"/>
		<rect id="XMLID_7_" x="322.6" class="st0" width="20.3" height="7.3"/>
		<rect id="XMLID_6_" x="322.6" y="112.6" class="st0" width="20.3" height="7.3"/>
	</g>
	<g id="XMLID_2_" class="st1">
		<rect id="XMLID_167_" x="7.8" y="18.8" class="st2" width="327.4" height="82.3"/>
		<path id="XMLID_39_" class="st3" d="M108.5,25.7c-1.4,3.8-2.4,6.9-3,9.3c-0.6,1.9-0.9,3.5-1.1,4.9h-1.8c0.5-3.1,0.7-5.2,0.7-6.3
			c0-2.3-0.6-3.8-1.7-4.7c-1.2-0.9-3.2-1.3-6.2-1.3h-5.8c-1.9,0-3.3,0.1-4.2,0.4c-0.9,0.3-1.7,0.9-2.3,1.8c-0.6,0.9-1.1,2.3-1.7,4.3
			l-5,18.6h5.2c1.8,0,3.4-0.4,4.6-1.3c1.2-0.9,2.2-1.9,2.8-3c0.7-1.2,1.4-2.6,2.1-4.4c0.2-0.5,0.4-1.1,0.6-1.7h1.8
			c-1.1,3.5-2,6.6-2.8,9.4l-0.5,1.8c-0.7,2.8-1.6,6.5-2.5,11.2H86l0.2-1.6c0.1-0.4,0.1-0.9,0.2-1.7c0.1-0.8,0.2-1.5,0.2-2.1
			c0-1.6-0.4-2.8-1.2-3.7c-0.8-0.9-2.2-1.3-4.2-1.3H76l-5.1,19c-0.5,1.6-0.7,2.9-0.7,3.9c0,1.1,0.4,1.8,1.2,2.2s2.2,0.5,4.2,0.5h5.8
			c3.3,0,5.9-0.4,7.8-1.3c1.9-0.9,3.6-2.3,4.9-4.2c1.3-1.9,2.6-4.8,4-8.5h1.8c-0.6,1.5-1.2,3.4-1.7,5.7c-0.8,3-1.6,6.3-2.1,10.1
			c-3.6-0.2-9.6-0.2-18.1-0.2c-10.1,0-17.7,0.1-22.8,0.2l0.4-1.6c1.9-0.1,3.3-0.3,4.2-0.6c0.9-0.3,1.7-0.9,2.3-1.8
			c0.6-0.9,1.1-2.3,1.7-4.3L74.1,34c0.5-1.7,0.7-3,0.7-3.9c0-1.1-0.4-1.8-1.1-2.2c-0.8-0.4-2.1-0.6-4.1-0.7l0.4-1.6
			c5.2,0.2,12.8,0.2,22.9,0.2C100.2,25.9,105.4,25.8,108.5,25.7z"/>
		<path id="XMLID_155_" class="st3" d="M146.2,40.7c0.7,0.5,1,1.2,1,2.1c0,1-0.4,1.9-1.2,2.6c-0.8,0.8-1.8,1.1-3,1.1
			c-1.8,0-3.4-0.6-5-1.9c-3.3,3-6.2,7.6-8.5,13.8l1.9,16.9c0.2,1.3,0.5,2.3,0.9,2.8c0.4,0.6,1,0.8,1.7,0.8c0.9,0,1.8-0.5,2.6-1.5
			c0.8-1,1.7-2.9,2.7-5.7l1-2.9h1.5l-2,5.8c-1.9,5.4-5,8.1-9,8.1c-3.8,0-6-2.4-6.6-7.3l-1.2-10.3c-2.1,4.7-4.9,8.9-8.4,12.6
			c-1.6,1.7-3.1,2.9-4.3,3.7c-1.2,0.8-2.5,1.2-3.7,1.2c-1.2,0-2-0.3-2.6-0.8c-0.6-0.5-0.9-1.2-0.9-2.2c0-1,0.4-1.9,1.2-2.6
			c0.8-0.8,1.8-1.1,2.9-1.1c1.7,0,3.3,0.6,5,1.9c2.2-2,4.2-4.4,6-7.2c1.8-2.8,3.3-5.6,4.5-8.4l-1.7-15.2c-0.2-1.3-0.5-2.3-0.9-2.8
			c-0.4-0.6-1-0.8-1.7-0.8c-0.9,0-1.8,0.5-2.6,1.5c-0.8,1-1.7,2.9-2.7,5.7l-1,2.9h-1.5l2-5.8c1.9-5.4,5-8.1,9-8.1
			c1.9,0,3.4,0.5,4.5,1.6c1.1,1.1,1.7,3,2.1,5.6l0.9,8.1c1.7-4,3.9-7.5,6.6-10.6c1.5-1.7,2.8-3,4.1-3.7c1.2-0.7,2.5-1.1,3.8-1.1
			C144.7,39.9,145.6,40.1,146.2,40.7z"/>
		<path id="XMLID_157_" class="st3" d="M185.9,42.7c1.4,1.9,2.2,4.6,2.2,8.3c0,4.3-0.9,8.9-2.8,13.9c-1.9,5-4.6,9.2-8.1,12.6
			c-3.5,3.5-7.6,5.2-12.2,5.2c-1.4,0-2.7-0.4-3.9-1.2c-1.2-0.8-2-1.9-2.5-3.4l-3,10.4c-0.2,0.6-0.3,1.3-0.3,1.9
			c0,1.4,0.6,2.3,1.7,2.9c1.2,0.6,2.8,0.9,5,0.9l-0.5,1.7l-1.7-0.1c-4.6-0.2-7.6-0.2-8.9-0.2c-1.4,0-4.3,0.1-8.8,0.3l0.5-1.7
			c1.9,0,3.3-0.3,4.1-1c0.8-0.7,1.5-2,2.1-3.9l14.8-52.7c-1.6,3.5-3.4,6.6-5.5,9.3c-2.1,2.7-4.7,5.5-7.8,8.5l-0.9-1
			c2.5-2.4,4.5-4.6,6.2-6.5c1.7-1.9,3.3-4.2,5-6.9c1.7-2.7,3.3-6,4.9-10l0.3-1.1c2.8-0.1,5.2-0.5,7.2-1.1l-8.2,28.8
			c2.5-5.8,4.9-10.1,7.4-12.7c2.4-2.6,5-4,7.8-4C182.4,39.9,184.4,40.8,185.9,42.7z M172.8,75.6c2.5-3.5,4.6-7.8,6.1-12.8
			c1.6-5,2.3-9.5,2.3-13.6c0-2.3-0.3-4-1-5.1c-0.7-1.2-1.6-1.7-2.7-1.7c-1.5,0-3.2,1.2-5.2,3.6c-2,2.4-4,5.6-6,9.7
			c-2,4.1-3.8,8.5-5.3,13.3l-2.1,7.2c0.6,1.7,1.4,2.9,2.4,3.6c0.9,0.7,2.1,1.1,3.4,1.1C167.6,80.9,170.3,79.1,172.8,75.6z"/>
		<path id="XMLID_160_" class="st3" d="M216.7,56.3c-4.8,3.2-10.3,5.8-16.4,7.8c-0.6,2.6-0.9,5.2-0.9,7.7c0,5.1,1.8,7.6,5.5,7.6
			c4.5,0,8.6-2.6,12.2-7.9l1.3,0.6c-1.7,2.9-4,5.4-6.8,7.5c-2.9,2.1-5.9,3.1-9,3.1c-3.3,0-5.8-0.9-7.7-2.8c-1.8-1.9-2.8-4.7-2.8-8.3
			c0-4,1.2-8.5,3.5-13.5c2.3-5,5.5-9.3,9.5-12.8c4-3.5,8.3-5.3,13-5.3c1.7,0,3.1,0.4,4.2,1.3c1.1,0.9,1.7,2.2,1.7,3.9
			C223.9,49.4,221.5,53.1,216.7,56.3z M210.7,44.3c-2.1,2-4,4.6-5.8,7.9c-1.8,3.3-3.2,6.7-4.1,10.4c5-1.7,8.6-3.4,10.7-5.1
			c1.9-1.5,3.5-3.4,4.5-5.6c1.1-2.2,1.6-4.5,1.6-7.1c0-1.4-0.1-2.4-0.3-2.8c-0.2-0.5-0.5-0.7-0.9-0.7
			C214.6,41.4,212.8,42.4,210.7,44.3z"/>
		<path id="XMLID_163_" class="st3" d="M259.5,41.1c0.8,0.8,1.3,1.9,1.3,3.2c0,1.6-0.6,2.9-1.7,4c-1.1,1.1-2.4,1.7-3.9,1.7
			c-0.9,0-1.7-0.2-2.3-0.8c-0.6-0.5-0.9-1.2-0.9-2.1c0-1.2,0.3-2.2,0.9-3.1c0.6-0.8,1.5-1.5,2.6-2c-0.2-0.2-0.5-0.3-0.9-0.3
			c-2.8,0-5.9,3.1-9.3,9.2c-3.3,6.1-6.5,14.2-9.4,24.3l-1.6,6.2h-6.9l9.5-33.9c0.4-1.2,0.6-2.2,0.6-3.1c0-1.2-0.6-1.8-1.7-1.8
			c-1.2,0-2.2,0.6-3.2,1.9c-1,1.2-2,3.3-3,6.2l-1,2.9h-1.5l2-5.8c1.9-5.4,5.1-8.1,9.6-8.1c3,0,4.5,1.5,4.5,4.6
			c0,1.5-0.4,3.6-1.1,6.5l-2.5,10c2.8-7.6,5.5-13,8-16.2c2.5-3.2,5.3-4.8,8.4-4.8C257.6,39.9,258.7,40.3,259.5,41.1z"/>
		<path id="XMLID_165_" class="st3" d="M268.2,74.9c-0.2,0.6-0.2,1.2-0.2,1.7c0,1.1,0.3,1.8,0.9,2.4c0.6,0.5,1.4,0.8,2.4,0.8
			c1.3,0,2.5-0.6,3.7-1.7c1.1-1.1,2.3-3.2,3.4-6.2l1.1-3.1h1.5l-1.7,5c-1.1,3.3-2.5,5.6-4.3,6.9c-1.8,1.3-3.9,2-6.5,2
			c-2.4,0-4.1-0.6-5.3-1.7c-1.2-1.2-1.7-2.8-1.7-4.8c0-1.4,0.2-2.9,0.7-4.5l8.4-29.1h-7.1l0.4-1.6h7.1l3.5-12
			c2.8-0.1,5.2-0.5,7.1-1.1L277.8,41h10.4l-0.2,1.6h-10.7L268.2,74.9z"/>
	</g>
	<g id="XMLID_26_" class="st1">
		<rect id="XMLID_153_" x="1.5" y="7.5" class="st2" width="340" height="104.9"/>
		<path id="XMLID_65_" class="st3" d="M31.8,23.9c-1.6,1.7-2.9,4-3.9,6.9c-1,2.8-1.5,5.8-1.5,9c0,1.6,0.3,2.7,0.9,3.5
			c0.6,0.8,1.4,1.1,2.5,1.1c2.6,0,5-1.6,7.2-4.8l1,0.4c-1,1.8-2.4,3.3-4.2,4.5s-3.6,1.9-5.5,1.9c-2,0-3.5-0.6-4.6-1.8
			c-1.1-1.2-1.7-3-1.7-5.3c0-2.6,0.6-5.4,1.8-8.4c1.2-3,2.9-5.5,5.1-7.5c2.2-2,4.7-3.1,7.5-3.1c1.5,0,2.7,0.4,3.7,1.1
			c1,0.7,1.5,1.7,1.5,3c0,1-0.3,1.9-1,2.7c-0.6,0.8-1.5,1.2-2.4,1.2c-0.6,0-1.1-0.2-1.5-0.5c-0.3-0.4-0.5-0.8-0.5-1.3
			c0-0.9,0.4-1.7,1.1-2.3c0.7-0.7,1.6-1.1,2.5-1.3c-0.7-1-1.8-1.5-3.3-1.5C34.9,21.3,33.3,22.2,31.8,23.9z"/>
		<path id="XMLID_100_" class="st3" d="M44.5,30.7c1.1-2.9,2.7-5.3,4.8-7.3c2.1-2,4.6-3,7.3-3c2,0,3.7,0.6,4.8,1.9
			c1.2,1.3,1.8,3.1,1.8,5.6c0,2.5-0.6,5.2-1.7,8.1c-1.1,2.9-2.7,5.3-4.8,7.3c-2.1,2-4.6,3-7.3,3c-2,0-3.7-0.6-4.8-1.9
			c-1.2-1.3-1.8-3.1-1.8-5.6C42.8,36.3,43.3,33.6,44.5,30.7z M51.7,24.4c-1.5,2.1-2.6,4.7-3.5,7.8c-0.9,3.1-1.3,6.1-1.3,9
			c0,1.4,0.2,2.5,0.7,3.2c0.4,0.7,1.1,1,2.1,1c1.6,0,3.2-1,4.6-3.1c1.5-2.1,2.6-4.7,3.5-7.8c0.9-3.1,1.3-6.1,1.3-9
			c0-1.4-0.2-2.5-0.7-3.2c-0.4-0.7-1.1-1-2.1-1C54.7,21.3,53.2,22.3,51.7,24.4z"/>
		<path id="XMLID_103_" class="st3" d="M90.6,37.9l-1.2,3.5c-1.2,3.3-3.1,4.9-5.8,4.9c-1.4,0-2.4-0.5-3-1.4
			c-0.3-0.4-0.4-0.9-0.4-1.6c0-0.9,0.3-2.1,0.8-3.7l4.6-13.7c0.3-1.1,0.5-1.8,0.5-2.4c0-1.1-0.5-1.7-1.5-1.7c-1.2,0-2.6,0.9-4.2,2.7
			c-1.6,1.8-3.1,4.2-4.6,7.3c-1.5,3.1-2.8,6.5-3.9,10.3L71,45.7h-4.2l5.8-20.6c0.2-0.8,0.3-1.4,0.3-1.8c0-0.8-0.4-1.2-1.1-1.2
			c-0.7,0-1.3,0.4-1.9,1.1c-0.5,0.7-1.2,2-1.8,3.8l-0.6,1.8h-0.9l1.2-3.5c1.2-3.3,3.1-4.9,5.7-4.9c1,0,1.8,0.2,2.2,0.7
			s0.6,1.2,0.6,2.1c0,0.9-0.2,2.2-0.7,3.9l-1.7,6.6c2-4.8,4-8.3,5.9-10.3c1.9-2,3.9-3,6.2-3c2.6,0,3.9,1.2,3.9,3.6
			c0,1.1-0.2,2.3-0.7,3.6l-4.7,14c-0.3,0.8-0.4,1.4-0.4,1.8c0,0.8,0.4,1.2,1.2,1.2c0.6,0,1.3-0.4,1.8-1.1c0.6-0.7,1.2-2,1.8-3.8
			l0.6-1.8H90.6z"/>
		<path id="XMLID_105_" class="st3" d="M96.8,45.3c0.3,0.1,0.7,0.1,1.3,0.1c1.4,0,2.6-0.4,3.5-1.3c0.9-0.9,1.3-2.1,1.3-3.6
			c0-1-0.2-2-0.6-3c-0.4-1-1-2.1-1.9-3.3c-1.1-1.5-1.9-2.7-2.4-3.6c-0.5-0.9-0.7-2.1-0.7-3.3c0-1.3,0.3-2.5,1-3.5
			c0.7-1,1.6-1.8,2.7-2.4c1.1-0.6,2.4-0.9,3.7-0.9c1.7,0,3.1,0.3,4.2,0.9c1.1,0.6,1.7,1.7,1.7,3.2c0,0.6-0.2,1.1-0.6,1.7
			c-0.4,0.5-0.9,0.8-1.7,0.8c-0.5,0-1-0.2-1.4-0.6c-0.4-0.4-0.6-0.9-0.6-1.4c0-1,0.4-2.1,1.3-3.2c-0.6-0.4-1.4-0.6-2.4-0.6
			c-1.2,0-2.2,0.4-3,1.2c-0.8,0.8-1.2,1.9-1.2,3.3c0,0.8,0.1,1.5,0.4,2.1c0.3,0.6,0.8,1.5,1.6,2.6l0.9,1.2c1,1.5,1.7,2.7,2.1,3.8
			c0.5,1.1,0.7,2.1,0.7,3.3c0,1.4-0.4,2.7-1.1,3.9c-0.8,1.2-1.8,2-3,2.7c-1.3,0.6-2.6,1-4.1,1c-1.8,0-3.4-0.4-4.6-1.2
			c-1.2-0.8-1.9-2-1.9-3.6c0-0.5,0.2-1,0.5-1.5c0.3-0.4,0.8-0.7,1.4-0.7c0.7,0,1.2,0.3,1.6,0.9c0.4,0.6,0.5,1.3,0.5,2.2
			c0,0.5-0.1,1.4-0.3,2.5C96.2,45.1,96.5,45.2,96.8,45.3z"/>
		<path id="XMLID_107_" class="st3" d="M114,30.7c1.1-2.9,2.7-5.3,4.8-7.3c2.1-2,4.6-3,7.3-3c2,0,3.7,0.6,4.8,1.9
			c1.2,1.3,1.8,3.1,1.8,5.6c0,2.5-0.6,5.2-1.7,8.1c-1.1,2.9-2.7,5.3-4.8,7.3c-2.1,2-4.6,3-7.3,3c-2,0-3.7-0.6-4.8-1.9
			c-1.2-1.3-1.8-3.1-1.8-5.6C112.3,36.3,112.9,33.6,114,30.7z M121.3,24.4c-1.5,2.1-2.6,4.7-3.5,7.8c-0.9,3.1-1.3,6.1-1.3,9
			c0,1.4,0.2,2.5,0.7,3.2c0.4,0.7,1.1,1,2.1,1c1.6,0,3.2-1,4.6-3.1c1.5-2.1,2.6-4.7,3.5-7.8c0.9-3.1,1.3-6.1,1.3-9
			c0-1.4-0.2-2.5-0.7-3.2c-0.4-0.7-1.1-1-2.1-1C124.3,21.3,122.7,22.3,121.3,24.4z"/>
		<path id="XMLID_110_" class="st3" d="M171.2,37.9l-1.2,3.5c-1.2,3.3-3.1,4.9-5.8,4.9c-1.4,0-2.4-0.4-3-1.3c-0.3-0.5-0.4-1-0.4-1.7
			c0-0.9,0.3-2.1,0.8-3.7l4.6-13.7c0.3-1,0.5-1.8,0.5-2.5c0-1-0.4-1.5-1.1-1.5c-1.8,0-3.9,2.1-6.2,6.3c-2.3,4.2-4.5,9.7-6.6,16.6
			l0-0.3l-0.3,1.2h-4.3l6-19.8c0.3-1,0.5-1.8,0.5-2.4c0-1.1-0.4-1.6-1.3-1.6c-1.2,0-2.5,0.9-4,2.8c-1.5,1.9-2.9,4.4-4.3,7.7
			c-1.4,3.2-2.7,6.8-3.7,10.7l-0.7,2.6h-4.2l5.8-20.6c0.2-0.9,0.3-1.5,0.3-1.8c0-0.8-0.3-1.2-1-1.2c-0.7,0-1.4,0.4-1.9,1.1
			c-0.6,0.8-1.2,2-1.8,3.8l-0.6,1.8h-0.9l1.2-3.5c1.2-3.3,3.1-4.9,5.8-4.9c1.9,0,2.8,1,2.8,2.9c0,0.8-0.2,2.1-0.7,3.8l-1.5,6.1
			c1.9-4.7,3.7-8,5.4-9.9c1.7-1.9,3.6-2.9,5.7-2.9c2.1,0,3.2,1.1,3.2,3.4c0,1-0.2,2.3-0.7,3.9l-1.7,6.4c1.3-3.4,2.6-6,3.8-8
			c1.2-2,2.4-3.4,3.6-4.3c1.2-0.9,2.6-1.4,4.1-1.4c2.2,0,3.4,1.2,3.4,3.6c0,1-0.2,2.2-0.7,3.6l-4.7,14c-0.3,0.8-0.4,1.4-0.4,1.8
			c0,0.8,0.4,1.2,1.2,1.2c0.6,0,1.3-0.4,1.8-1.1c0.6-0.7,1.2-2,1.8-3.8l0.6-1.8H171.2z"/>
		<path id="XMLID_112_" class="st3" d="M210,37.9l-1.2,3.5c-1.2,3.3-3.1,4.9-5.8,4.9c-1.4,0-2.4-0.4-3-1.3c-0.3-0.5-0.4-1-0.4-1.7
			c0-0.9,0.3-2.1,0.8-3.7l4.6-13.7c0.3-1,0.5-1.8,0.5-2.5c0-1-0.4-1.5-1.1-1.5c-1.8,0-3.9,2.1-6.2,6.3c-2.3,4.2-4.5,9.7-6.6,16.6
			l0-0.3l-0.3,1.2H187l6-19.8c0.3-1,0.5-1.8,0.5-2.4c0-1.1-0.4-1.6-1.3-1.6c-1.2,0-2.5,0.9-4,2.8c-1.5,1.9-2.9,4.4-4.3,7.7
			c-1.4,3.2-2.7,6.8-3.7,10.7l-0.7,2.6h-4.2l5.8-20.6c0.2-0.9,0.3-1.5,0.3-1.8c0-0.8-0.3-1.2-1-1.2c-0.7,0-1.4,0.4-1.9,1.1
			c-0.6,0.8-1.2,2-1.8,3.8l-0.6,1.8H175l1.2-3.5c1.2-3.3,3.1-4.9,5.8-4.9c1.9,0,2.8,1,2.8,2.9c0,0.8-0.2,2.1-0.7,3.8l-1.5,6.1
			c1.9-4.7,3.7-8,5.4-9.9c1.7-1.9,3.6-2.9,5.7-2.9c2.1,0,3.2,1.1,3.2,3.4c0,1-0.2,2.3-0.7,3.9l-1.7,6.4c1.3-3.4,2.6-6,3.8-8
			c1.2-2,2.4-3.4,3.6-4.3c1.2-0.9,2.6-1.4,4.1-1.4c2.2,0,3.4,1.2,3.4,3.6c0,1-0.2,2.2-0.7,3.6l-4.7,14c-0.3,0.8-0.4,1.4-0.4,1.8
			c0,0.8,0.4,1.2,1.2,1.2c0.6,0,1.3-0.4,1.8-1.1c0.6-0.7,1.2-2,1.8-3.8l0.6-1.8H210z"/>
		<path id="XMLID_114_" class="st3" d="M234.2,37.9h0.9l-1.2,3.5c-0.6,1.8-1.5,3-2.4,3.8c-1,0.8-2,1.2-3.1,1.2
			c-0.6,0-1.1-0.1-1.6-0.3c-0.4-0.2-0.8-0.5-1.1-0.9c-0.3-0.5-0.4-1-0.4-1.7c0-0.7,0.1-1.4,0.3-2.3c0.2-0.8,0.4-1.4,0.4-1.6l0.9-3.5
			c-1.5,3.6-3.1,6.2-4.7,7.8c-1.6,1.6-3.2,2.4-5,2.4c-1.5,0-2.6-0.5-3.4-1.6s-1.2-2.5-1.2-4.2c0-2.6,0.7-5.5,2.1-8.7
			c1.4-3.2,3.2-5.9,5.4-8.2c2.2-2.2,4.4-3.4,6.7-3.4c0.9,0,1.6,0.3,2.1,1c0.5,0.6,0.9,1.5,1,2.7l0.8-3c1.8-0.1,3.2-0.3,4.4-0.7
			l-6,21.2c0,0.1-0.1,0.4-0.2,0.7c-0.1,0.4-0.1,0.7-0.1,1c0,0.8,0.4,1.2,1.1,1.2c1.4,0,2.6-1.6,3.7-4.9L234.2,37.9z M222,42.8
			c1.2-1.4,2.5-3.2,3.7-5.5c1.2-2.3,2.2-4.7,3-7.3l0.9-3.4c0-0.3,0-0.6,0-1.1c0-1.3-0.2-2.3-0.7-3.1s-1.1-1.1-1.9-1.1
			c-1.4,0-2.8,1.1-4.4,3.2c-1.5,2.1-2.8,4.8-3.9,7.9s-1.6,6.1-1.6,8.8c0,1.3,0.1,2.3,0.4,2.8c0.3,0.6,0.7,0.9,1.2,0.9
			C219.6,44.8,220.7,44.1,222,42.8z"/>
		<path id="XMLID_117_" class="st3" d="M243.3,41.6c-0.1,0.4-0.1,0.7-0.1,1.1c0,0.6,0.2,1.1,0.6,1.4c0.4,0.3,0.9,0.5,1.5,0.5
			c0.8,0,1.5-0.3,2.2-1c0.7-0.7,1.4-1.9,2-3.8l0.7-1.9h0.9l-1,3c-0.7,2-1.5,3.4-2.6,4.2c-1.1,0.8-2.4,1.2-4,1.2
			c-1.4,0-2.5-0.4-3.2-1.1c-0.7-0.7-1.1-1.7-1.1-2.9c0-0.8,0.1-1.7,0.4-2.7l5.1-17.7h-4.3l0.2-1h4.3l2.1-7.3
			c1.7-0.1,3.2-0.3,4.3-0.7l-2.3,8h6.3l-0.1,1h-6.5L243.3,41.6z"/>
		<path id="XMLID_119_" class="st3" d="M269.2,30.3c-2.9,2-6.2,3.5-10,4.8c-0.4,1.6-0.5,3.2-0.5,4.7c0,3.1,1.1,4.6,3.3,4.6
			c2.8,0,5.2-1.6,7.4-4.8l0.8,0.4c-1,1.8-2.4,3.3-4.2,4.5c-1.7,1.3-3.6,1.9-5.5,1.9c-2,0-3.5-0.6-4.7-1.7c-1.1-1.2-1.7-2.8-1.7-5
			c0-2.4,0.7-5.2,2.1-8.2c1.4-3.1,3.4-5.7,5.8-7.8c2.4-2.1,5.1-3.2,7.9-3.2c1,0,1.9,0.3,2.5,0.8c0.7,0.5,1,1.3,1,2.4
			C273.6,26.1,272.1,28.4,269.2,30.3z M265.6,23c-1.3,1.2-2.4,2.8-3.6,4.8c-1.1,2-1.9,4.1-2.5,6.3c3-1.1,5.2-2.1,6.5-3.1
			c1.2-0.9,2.1-2.1,2.8-3.4s1-2.8,1-4.3c0-0.9-0.1-1.4-0.2-1.7s-0.3-0.4-0.6-0.4C268,21.2,266.8,21.8,265.6,23z"/>
		<path id="XMLID_122_" class="st3" d="M298.2,37.9h0.9l-1.2,3.5c-1.2,3.3-3.1,4.9-5.8,4.9c-0.5,0-1-0.1-1.4-0.3
			c-0.4-0.2-0.8-0.5-1-1c-0.2-0.4-0.3-0.9-0.3-1.5c0-0.8,0.2-2.1,0.7-3.9l1.5-6c-1.9,4.6-3.7,7.8-5.4,9.8c-1.8,2-3.7,2.9-5.8,2.9
			c-2.7,0-4-1.2-4-3.7c0-1,0.2-2.2,0.7-3.6l4.7-14c0.3-0.8,0.4-1.4,0.4-1.8c0-0.8-0.4-1.2-1.2-1.2c-0.6,0-1.3,0.4-1.8,1.1
			c-0.6,0.7-1.2,2-1.8,3.8l-0.6,1.8h-0.9l1.2-3.5c1.2-3.3,3.1-4.9,5.8-4.9c2.2,0,3.4,1,3.4,3c0,1-0.3,2.2-0.8,3.7l-4.6,13.7
			c-0.3,1-0.5,1.8-0.5,2.4c0,1.1,0.5,1.6,1.5,1.6c1.2,0,2.6-0.9,4.1-2.8c1.5-1.8,3-4.4,4.5-7.7c1.5-3.3,2.8-6.9,3.8-11l0.6-2.4
			c1.8-0.1,3.3-0.3,4.4-0.7l-6,21.3c-0.2,0.8-0.3,1.5-0.3,1.9c0,0.7,0.3,1.1,1,1.1c0.7,0,1.4-0.4,1.9-1.1c0.6-0.8,1.2-2,1.8-3.8
			L298.2,37.9z"/>
		<path id="XMLID_124_" class="st3" d="M322.5,21.1c0.5,0.5,0.8,1.2,0.8,2c0,1-0.3,1.8-1,2.4s-1.5,1-2.4,1c-0.6,0-1-0.2-1.4-0.5
			c-0.4-0.3-0.5-0.7-0.5-1.3c0-0.7,0.2-1.4,0.6-1.9s0.9-0.9,1.6-1.2c-0.1-0.1-0.3-0.2-0.5-0.2c-1.7,0-3.6,1.9-5.6,5.6
			s-3.9,8.6-5.7,14.8l-1,3.8h-4.2l5.8-20.6c0.2-0.7,0.3-1.3,0.3-1.9c0-0.7-0.3-1.1-1-1.1c-0.7,0-1.4,0.4-1.9,1.1
			c-0.6,0.8-1.2,2-1.8,3.8l-0.6,1.8h-0.9l1.2-3.5c1.2-3.3,3.1-4.9,5.8-4.9c1.8,0,2.7,0.9,2.7,2.8c0,0.9-0.2,2.2-0.7,3.9l-1.5,6
			c1.7-4.6,3.4-7.9,4.9-9.9c1.5-1.9,3.2-2.9,5.1-2.9C321.3,20.3,322,20.6,322.5,21.1z"/>
		<path id="XMLID_126_" class="st3" d="M56.3,88.3c1.1-2.9,2.7-5.3,4.8-7.3c2.1-2,4.6-3,7.3-3c2,0,3.7,0.6,4.8,1.9
			c1.2,1.3,1.8,3.1,1.8,5.6c0,2.5-0.6,5.2-1.7,8.1c-1.1,2.9-2.7,5.3-4.8,7.3c-2.1,2-4.6,3-7.3,3c-2,0-3.7-0.6-4.8-1.9
			c-1.2-1.3-1.8-3.1-1.8-5.6C54.6,93.9,55.1,91.2,56.3,88.3z M63.5,82c-1.5,2.1-2.6,4.7-3.5,7.8c-0.9,3.1-1.3,6.1-1.3,9
			c0,1.4,0.2,2.5,0.7,3.2c0.4,0.7,1.1,1,2.1,1c1.6,0,3.2-1,4.6-3.1c1.5-2.1,2.6-4.7,3.5-7.8c0.9-3.1,1.3-6.1,1.3-9
			c0-1.4-0.2-2.5-0.7-3.2c-0.4-0.7-1.1-1-2.1-1C66.5,78.9,65,79.9,63.5,82z"/>
		<path id="XMLID_129_" class="st3" d="M87.7,81.5c-1.6,1.7-2.9,4-3.9,6.9c-1,2.8-1.5,5.8-1.5,9c0,1.6,0.3,2.7,0.9,3.5
			c0.6,0.8,1.4,1.1,2.5,1.1c2.6,0,5-1.6,7.2-4.8l1,0.4c-1,1.8-2.4,3.3-4.2,4.5s-3.6,1.9-5.5,1.9c-2,0-3.5-0.6-4.6-1.8
			c-1.1-1.2-1.7-3-1.7-5.3c0-2.6,0.6-5.4,1.8-8.4c1.2-3,2.9-5.5,5.1-7.5c2.2-2,4.7-3.1,7.5-3.1c1.5,0,2.7,0.4,3.7,1.1
			c1,0.7,1.5,1.7,1.5,3c0,1-0.3,1.9-1,2.7c-0.6,0.8-1.5,1.2-2.4,1.2c-0.6,0-1.1-0.2-1.5-0.5c-0.3-0.4-0.5-0.8-0.5-1.3
			c0-0.9,0.4-1.7,1.1-2.3c0.7-0.7,1.6-1.1,2.5-1.3c-0.7-1-1.8-1.5-3.3-1.5C90.9,78.9,89.3,79.8,87.7,81.5z"/>
		<path id="XMLID_131_" class="st3" d="M108.5,81.5c-1.6,1.7-2.9,4-3.9,6.9c-1,2.8-1.5,5.8-1.5,9c0,1.6,0.3,2.7,0.9,3.5
			c0.6,0.8,1.4,1.1,2.5,1.1c2.6,0,5-1.6,7.2-4.8l1,0.4c-1,1.8-2.4,3.3-4.2,4.5s-3.6,1.9-5.5,1.9c-2,0-3.5-0.6-4.6-1.8
			c-1.1-1.2-1.7-3-1.7-5.3c0-2.6,0.6-5.4,1.8-8.4c1.2-3,2.9-5.5,5.1-7.5c2.2-2,4.7-3.1,7.5-3.1c1.5,0,2.7,0.4,3.7,1.1
			c1,0.7,1.5,1.7,1.5,3c0,1-0.3,1.9-1,2.7c-0.6,0.8-1.5,1.2-2.4,1.2c-0.6,0-1.1-0.2-1.5-0.5c-0.3-0.4-0.5-0.8-0.5-1.3
			c0-0.9,0.4-1.7,1.1-2.3c0.7-0.7,1.6-1.1,2.5-1.3c-0.7-1-1.8-1.5-3.3-1.5C111.6,78.9,110,79.8,108.5,81.5z"/>
		<path id="XMLID_133_" class="st3" d="M140.3,95.5h0.9L140,99c-0.6,1.8-1.5,3-2.4,3.8c-1,0.8-2,1.2-3.1,1.2c-0.6,0-1.1-0.1-1.6-0.3
			c-0.4-0.2-0.8-0.5-1.1-0.9c-0.3-0.5-0.4-1-0.4-1.7c0-0.7,0.1-1.4,0.3-2.3c0.2-0.8,0.4-1.4,0.4-1.6l0.9-3.5
			c-1.5,3.6-3.1,6.2-4.7,7.8c-1.6,1.6-3.2,2.4-5,2.4c-1.5,0-2.6-0.5-3.4-1.6s-1.2-2.5-1.2-4.2c0-2.6,0.7-5.5,2.1-8.7
			c1.4-3.2,3.2-5.9,5.4-8.2c2.2-2.2,4.4-3.4,6.7-3.4c0.9,0,1.6,0.3,2.1,1c0.5,0.6,0.9,1.5,1,2.7l0.8-3c1.8-0.1,3.2-0.3,4.4-0.7
			l-6,21.2c0,0.1-0.1,0.4-0.2,0.7c-0.1,0.4-0.1,0.7-0.1,1c0,0.8,0.4,1.2,1.1,1.2c1.4,0,2.6-1.6,3.7-4.9L140.3,95.5z M128,100.4
			c1.2-1.4,2.5-3.2,3.7-5.5c1.2-2.3,2.2-4.7,3-7.3l0.9-3.4c0-0.3,0-0.6,0-1.1c0-1.3-0.2-2.3-0.7-3.1c-0.5-0.8-1.1-1.1-1.9-1.1
			c-1.4,0-2.8,1.1-4.4,3.2c-1.5,2.1-2.8,4.8-3.9,7.9c-1,3.1-1.6,6.1-1.6,8.8c0,1.3,0.1,2.3,0.4,2.8c0.3,0.6,0.7,0.9,1.2,0.9
			C125.7,102.4,126.8,101.7,128,100.4z"/>
		<path id="XMLID_136_" class="st3" d="M147.3,102.9c0.3,0.1,0.7,0.1,1.3,0.1c1.4,0,2.6-0.4,3.5-1.3c0.9-0.9,1.3-2.1,1.3-3.6
			c0-1-0.2-2-0.6-3c-0.4-1-1-2.1-1.9-3.3c-1.1-1.5-1.9-2.7-2.4-3.6c-0.5-0.9-0.7-2.1-0.7-3.3c0-1.3,0.3-2.5,1-3.5
			c0.7-1,1.6-1.8,2.7-2.4c1.1-0.6,2.4-0.9,3.7-0.9c1.7,0,3.1,0.3,4.2,0.9c1.1,0.6,1.7,1.7,1.7,3.2c0,0.6-0.2,1.1-0.6,1.7
			c-0.4,0.5-0.9,0.8-1.7,0.8c-0.5,0-1-0.2-1.4-0.6c-0.4-0.4-0.6-0.9-0.6-1.4c0-1,0.4-2.1,1.3-3.2c-0.6-0.4-1.4-0.6-2.4-0.6
			c-1.2,0-2.2,0.4-3,1.2c-0.8,0.8-1.2,1.9-1.2,3.3c0,0.8,0.1,1.5,0.4,2.1c0.3,0.6,0.8,1.5,1.6,2.6l0.9,1.2c1,1.5,1.7,2.7,2.1,3.8
			c0.5,1.1,0.7,2.1,0.7,3.3c0,1.4-0.4,2.7-1.1,3.9c-0.8,1.2-1.8,2-3,2.7c-1.3,0.6-2.6,1-4.1,1c-1.8,0-3.4-0.4-4.6-1.2
			c-1.2-0.8-1.9-2-1.9-3.6c0-0.5,0.2-1,0.5-1.5c0.3-0.4,0.8-0.7,1.4-0.7c0.7,0,1.2,0.3,1.6,0.9c0.4,0.6,0.5,1.3,0.5,2.2
			c0,0.5-0.1,1.4-0.3,2.5C146.7,102.7,147,102.8,147.3,102.9z"/>
		<path id="XMLID_138_" class="st3" d="M169.8,80.9c0-0.8-0.4-1.2-1.1-1.2c-0.7,0-1.4,0.4-2,1.2c-0.6,0.8-1.2,2-1.8,3.7l-0.7,1.8
			h-0.9l1.2-3.5c0.6-1.8,1.5-3.1,2.6-3.8c1.1-0.7,2.2-1.1,3.4-1.1c2.1,0,3.2,1,3.2,3c0,1.1-0.3,2.3-0.8,3.7l-5.1,14.5
			c-0.3,0.8-0.4,1.4-0.4,1.8c0,0.8,0.4,1.2,1.2,1.2c0.7,0,1.3-0.4,1.9-1.1c0.6-0.7,1.2-2,1.9-3.8l0.7-1.8h0.9l-1.2,3.5
			c-0.6,1.8-1.5,3-2.5,3.8c-1,0.8-2.2,1.2-3.4,1.2c-2.2,0-3.4-1-3.4-2.9c0-0.9,0.3-2.2,0.9-3.8l5.1-14.5
			C169.7,81.9,169.8,81.3,169.8,80.9z M172,67.9c0.7-0.8,1.5-1.1,2.5-1.1c0.7,0,1.3,0.2,1.8,0.7c0.4,0.5,0.7,1.1,0.7,1.8
			c0,1-0.4,1.8-1.1,2.5c-0.7,0.7-1.6,1.1-2.5,1.1c-0.7,0-1.3-0.2-1.7-0.7c-0.4-0.5-0.7-1-0.7-1.8C170.9,69.5,171.2,68.7,172,67.9z"
			/>
		<path id="XMLID_141_" class="st3" d="M179,88.3c1.1-2.9,2.7-5.3,4.8-7.3s4.6-3,7.3-3c2,0,3.7,0.6,4.8,1.9c1.2,1.3,1.8,3.1,1.8,5.6
			c0,2.5-0.6,5.2-1.7,8.1c-1.1,2.9-2.7,5.3-4.8,7.3c-2.1,2-4.6,3-7.3,3c-2,0-3.7-0.6-4.8-1.9s-1.8-3.1-1.8-5.6
			C177.4,93.9,177.9,91.2,179,88.3z M186.3,82c-1.5,2.1-2.6,4.7-3.5,7.8c-0.9,3.1-1.3,6.1-1.3,9c0,1.4,0.2,2.5,0.7,3.2s1.1,1,2.1,1
			c1.6,0,3.2-1,4.6-3.1c1.5-2.1,2.6-4.7,3.5-7.8s1.3-6.1,1.3-9c0-1.4-0.2-2.5-0.7-3.2c-0.4-0.7-1.1-1-2.1-1
			C189.3,78.9,187.8,79.9,186.3,82z"/>
		<path id="XMLID_144_" class="st3" d="M225.2,95.5L224,99c-1.2,3.3-3.1,4.9-5.8,4.9c-1.4,0-2.4-0.5-3-1.4c-0.3-0.4-0.4-0.9-0.4-1.6
			c0-0.9,0.3-2.1,0.8-3.7l4.6-13.7c0.3-1.1,0.5-1.8,0.5-2.4c0-1.1-0.5-1.7-1.5-1.7c-1.2,0-2.6,0.9-4.2,2.7c-1.6,1.8-3.1,4.2-4.6,7.3
			c-1.5,3.1-2.8,6.5-3.9,10.3l-0.9,3.5h-4.2l5.8-20.6c0.2-0.8,0.3-1.4,0.3-1.8c0-0.8-0.4-1.2-1.1-1.2s-1.3,0.4-1.9,1.1
			s-1.2,2-1.8,3.8l-0.6,1.8h-0.9l1.2-3.5c1.2-3.3,3.1-4.9,5.7-4.9c1,0,1.8,0.2,2.2,0.7s0.6,1.2,0.6,2.1c0,0.9-0.2,2.2-0.7,3.9
			l-1.7,6.6c2-4.8,4-8.3,5.9-10.3c1.9-2,3.9-3,6.2-3c2.6,0,3.9,1.2,3.9,3.6c0,1.1-0.2,2.3-0.7,3.6l-4.7,14c-0.3,0.8-0.4,1.4-0.4,1.8
			c0,0.8,0.4,1.2,1.2,1.2c0.6,0,1.3-0.4,1.8-1.1c0.6-0.7,1.2-2,1.8-3.8l0.6-1.8H225.2z"/>
		<path id="XMLID_146_" class="st3" d="M253.1,95.5l-1.2,3.5c-1.2,3.3-3.1,4.9-5.8,4.9c-1.4,0-2.4-0.5-3-1.4
			c-0.3-0.4-0.4-0.9-0.4-1.6c0-0.9,0.3-2.1,0.8-3.7l4.6-13.7c0.3-1.1,0.5-1.8,0.5-2.4c0-1.1-0.5-1.7-1.5-1.7c-1.2,0-2.6,0.9-4.2,2.7
			c-1.6,1.8-3.1,4.2-4.6,7.3c-1.5,3.1-2.8,6.5-3.9,10.3l-0.9,3.5h-4.2l5.8-20.6c0.2-0.8,0.3-1.4,0.3-1.8c0-0.8-0.4-1.2-1.1-1.2
			s-1.3,0.4-1.9,1.1s-1.2,2-1.8,3.8l-0.6,1.8h-0.9l1.2-3.5c1.2-3.3,3.1-4.9,5.7-4.9c1,0,1.8,0.2,2.2,0.7s0.6,1.2,0.6,2.1
			c0,0.9-0.2,2.2-0.7,3.9l-1.7,6.6c2-4.8,4-8.3,5.9-10.3c1.9-2,3.9-3,6.2-3c2.6,0,3.9,1.2,3.9,3.6c0,1.1-0.2,2.3-0.7,3.6l-4.7,14
			c-0.3,0.8-0.4,1.4-0.4,1.8c0,0.8,0.4,1.2,1.2,1.2c0.6,0,1.3-0.4,1.8-1.1c0.6-0.7,1.2-2,1.8-3.8l0.6-1.8H253.1z"/>
		<path id="XMLID_148_" class="st3" d="M271.1,87.9c-2.9,2-6.2,3.5-10,4.8c-0.4,1.6-0.5,3.2-0.5,4.7c0,3.1,1.1,4.6,3.3,4.6
			c2.8,0,5.2-1.6,7.4-4.8l0.8,0.4c-1,1.8-2.4,3.3-4.2,4.5c-1.7,1.3-3.6,1.9-5.5,1.9c-2,0-3.5-0.6-4.7-1.7c-1.1-1.2-1.7-2.8-1.7-5
			c0-2.4,0.7-5.2,2.1-8.2c1.4-3.1,3.4-5.7,5.8-7.8c2.4-2.1,5.1-3.2,7.9-3.2c1,0,1.9,0.3,2.5,0.8c0.7,0.5,1,1.3,1,2.4
			C275.4,83.7,274,86,271.1,87.9z M267.4,80.6c-1.3,1.2-2.4,2.8-3.6,4.8c-1.1,2-1.9,4.1-2.5,6.3c3-1.1,5.2-2.1,6.5-3.1
			c1.2-0.9,2.1-2.1,2.8-3.4s1-2.8,1-4.3c0-0.9-0.1-1.4-0.2-1.7s-0.3-0.4-0.6-0.4C269.8,78.8,268.7,79.4,267.4,80.6z"/>
		<path id="XMLID_151_" class="st3" d="M280.7,100.9c0,0.9,0.4,1.3,1.1,1.3c0.6,0,1.2-0.4,1.8-1.1c0.6-0.7,1.2-2,1.8-3.8l0.6-1.8
			h0.9l-1.2,3.5c-1.1,3.3-3,4.9-5.8,4.9c-2.2,0-3.3-1-3.3-3.1c0-0.8,0.2-2,0.7-3.6l7.8-26c0.2-0.6,0.2-1,0.2-1.3
			c0-0.6-0.2-1.1-0.7-1.4c-0.5-0.3-1.3-0.4-2.5-0.4l0.3-1c1.7,0,3.2-0.2,4.6-0.5c1.4-0.3,2.7-0.8,4-1.4l-10,34.1
			C280.8,99.9,280.7,100.4,280.7,100.9z"/>
	</g>
	<g id="XMLID_3_" class="st1">
		<g id="XMLID_378_" class="st4">
			<path id="XMLID_405_" class="st5" d="M25.2,50.9c-1.7,2.2-3,5.2-4.1,8.8c-1.1,3.7-1.6,7.5-1.6,11.5c0,2,0.3,3.5,0.9,4.5
				c0.6,1,1.5,1.4,2.6,1.4c2.7,0,5.2-2.1,7.5-6.2l1,0.5c-1.1,2.3-2.5,4.2-4.3,5.8c-1.8,1.6-3.7,2.4-5.7,2.4c-2,0-3.6-0.8-4.8-2.3
				c-1.2-1.5-1.8-3.8-1.8-6.8c0-3.3,0.6-6.9,1.9-10.7c1.3-3.8,3.1-7,5.4-9.7c2.3-2.6,4.9-3.9,7.9-3.9c1.5,0,2.8,0.5,3.9,1.4
				c1,0.9,1.6,2.2,1.6,3.8c0,1.3-0.3,2.4-1,3.4c-0.7,1-1.5,1.5-2.6,1.5c-0.7,0-1.2-0.2-1.5-0.7c-0.4-0.5-0.5-1-0.5-1.7
				c0-1.1,0.4-2.1,1.1-3c0.7-0.8,1.6-1.4,2.7-1.6c-0.7-1.3-1.8-1.9-3.4-1.9C28.5,47.5,26.8,48.6,25.2,50.9z"/>
			<path id="XMLID_402_" class="st5" d="M38.4,59.6c1.2-3.7,2.9-6.9,5.1-9.4c2.2-2.6,4.8-3.9,7.7-3.9c2.1,0,3.8,0.8,5,2.4
				c1.2,1.6,1.8,4,1.8,7.2c0,3.2-0.6,6.7-1.8,10.4c-1.2,3.7-2.9,6.9-5.1,9.4c-2.2,2.6-4.8,3.9-7.7,3.9c-2.1,0-3.8-0.8-5-2.4
				c-1.2-1.6-1.8-4-1.8-7.2C36.7,66.8,37.2,63.3,38.4,59.6z M46,51.5c-1.5,2.7-2.7,6-3.7,10c-0.9,4-1.4,7.9-1.4,11.6
				c0,1.8,0.2,3.2,0.7,4.1c0.5,0.9,1.2,1.3,2.2,1.3c1.7,0,3.3-1.3,4.8-4c1.5-2.7,2.7-6,3.7-10c0.9-4,1.4-7.9,1.4-11.6
				c0-1.8-0.2-3.2-0.7-4.1c-0.5-0.9-1.2-1.3-2.2-1.3C49.1,47.5,47.5,48.9,46,51.5z"/>
			<path id="XMLID_400_" class="st5" d="M86.5,68.9l-1.3,4.5c-1.2,4.2-3.2,6.3-6.1,6.3c-1.5,0-2.6-0.6-3.2-1.8
				c-0.3-0.5-0.4-1.2-0.4-2c0-1.1,0.3-2.7,0.9-4.8l4.8-17.6c0.3-1.4,0.5-2.4,0.5-3c0-1.4-0.5-2.2-1.6-2.2c-1.3,0-2.7,1.1-4.3,3.4
				c-1.6,2.3-3.2,5.4-4.8,9.4c-1.6,4-2.9,8.4-4.1,13.3l-0.9,4.5h-4.4l6-26.4c0.2-1.1,0.4-1.8,0.4-2.3c0-1-0.4-1.5-1.1-1.5
				c-0.7,0-1.4,0.5-2,1.4c-0.6,0.9-1.2,2.5-1.9,4.9l-0.7,2.3h-1l1.3-4.5c1.2-4.2,3.2-6.3,6-6.3c1.1,0,1.8,0.3,2.3,1
				c0.5,0.6,0.7,1.5,0.7,2.7c0,1.1-0.2,2.8-0.7,5l-1.8,8.4c2.1-6.2,4.2-10.6,6.1-13.2c2-2.6,4.1-3.9,6.4-3.9c2.7,0,4.1,1.5,4.1,4.6
				c0,1.4-0.3,2.9-0.8,4.7l-4.9,18c-0.3,1-0.4,1.8-0.4,2.3c0,1,0.4,1.5,1.2,1.5c0.7,0,1.3-0.5,1.9-1.4c0.6-0.9,1.3-2.6,1.9-4.9
				l0.7-2.3H86.5z"/>
			<path id="XMLID_398_" class="st5" d="M93,78.4c0.3,0.1,0.8,0.1,1.3,0.1c1.5,0,2.7-0.6,3.7-1.7c0.9-1.1,1.4-2.7,1.4-4.7
				c0-1.3-0.2-2.6-0.6-3.9c-0.4-1.3-1.1-2.7-2-4.3c-1.1-1.9-2-3.4-2.5-4.7c-0.5-1.2-0.8-2.6-0.8-4.3c0-1.7,0.4-3.2,1.1-4.5
				c0.7-1.3,1.6-2.4,2.8-3.1c1.2-0.7,2.5-1.1,3.9-1.1c1.7,0,3.2,0.4,4.4,1.2c1.2,0.8,1.8,2.2,1.8,4.2c0,0.7-0.2,1.5-0.6,2.2
				c-0.4,0.7-1,1-1.7,1c-0.6,0-1-0.2-1.4-0.7c-0.4-0.5-0.6-1.1-0.6-1.8c0-1.3,0.5-2.7,1.4-4.1c-0.6-0.5-1.5-0.7-2.5-0.7
				c-1.3,0-2.3,0.5-3.1,1.6c-0.8,1-1.2,2.5-1.2,4.3c0,1.1,0.2,2,0.5,2.7c0.3,0.8,0.9,1.9,1.7,3.4l0.9,1.6c1,1.9,1.7,3.5,2.2,4.9
				c0.5,1.4,0.7,2.8,0.7,4.2c0,1.8-0.4,3.5-1.2,5c-0.8,1.5-1.8,2.6-3.2,3.5c-1.3,0.8-2.7,1.2-4.3,1.2c-1.9,0-3.5-0.5-4.8-1.5
				c-1.3-1-2-2.5-2-4.6c0-0.7,0.2-1.3,0.5-1.9c0.3-0.6,0.8-0.9,1.5-0.9c0.7,0,1.3,0.4,1.7,1.1c0.4,0.7,0.6,1.7,0.6,2.8
				c0,0.7-0.1,1.8-0.4,3.2C92.3,78.1,92.6,78.3,93,78.4z"/>
			<path id="XMLID_395_" class="st5" d="M110.9,59.6c1.2-3.7,2.9-6.9,5.1-9.4c2.2-2.6,4.8-3.9,7.7-3.9c2.1,0,3.8,0.8,5,2.4
				c1.2,1.6,1.8,4,1.8,7.2c0,3.2-0.6,6.7-1.8,10.4c-1.2,3.7-2.9,6.9-5.1,9.4c-2.2,2.6-4.8,3.9-7.7,3.9c-2.1,0-3.8-0.8-5-2.4
				c-1.2-1.6-1.8-4-1.8-7.2C109.1,66.8,109.7,63.3,110.9,59.6z M118.5,51.5c-1.5,2.7-2.7,6-3.7,10c-0.9,4-1.4,7.9-1.4,11.6
				c0,1.8,0.2,3.2,0.7,4.1c0.5,0.9,1.2,1.3,2.2,1.3c1.7,0,3.3-1.3,4.8-4c1.5-2.7,2.7-6,3.7-10c0.9-4,1.4-7.9,1.4-11.6
				c0-1.8-0.2-3.2-0.7-4.1c-0.5-0.9-1.2-1.3-2.2-1.3C121.6,47.5,120,48.9,118.5,51.5z"/>
			<path id="XMLID_393_" class="st5" d="M170.5,68.9l-1.3,4.5c-1.2,4.2-3.2,6.3-6.1,6.3c-1.5,0-2.5-0.6-3.1-1.7
				c-0.3-0.6-0.5-1.3-0.5-2.2c0-1.1,0.3-2.7,0.9-4.8l4.8-17.6c0.3-1.2,0.5-2.3,0.5-3.3c0-1.3-0.4-1.9-1.1-1.9c-1.9,0-4,2.7-6.4,8
				c-2.4,5.4-4.7,12.5-6.9,21.3l0-0.4l-0.4,1.6h-4.5l6.3-25.4c0.3-1.2,0.5-2.3,0.5-3.1c0-1.4-0.5-2-1.4-2c-1.2,0-2.6,1.2-4.2,3.6
				c-1.5,2.4-3,5.7-4.5,9.8c-1.5,4.2-2.8,8.7-3.9,13.7l-0.7,3.4h-4.4l6-26.4c0.2-1.1,0.4-1.9,0.4-2.3c0-1-0.4-1.5-1.1-1.5
				c-0.7,0-1.4,0.5-2,1.4c-0.6,1-1.2,2.6-1.9,4.8l-0.7,2.3h-1l1.3-4.5c1.2-4.2,3.2-6.3,6.1-6.3c1.9,0,2.9,1.2,2.9,3.7
				c0,1.1-0.3,2.7-0.8,4.9l-1.6,7.8c2-6,3.9-10.2,5.7-12.7c1.8-2.5,3.8-3.7,6-3.7c2.2,0,3.3,1.4,3.3,4.3c0,1.3-0.2,2.9-0.7,5
				l-1.8,8.3c1.4-4.3,2.7-7.7,4-10.3c1.2-2.5,2.5-4.4,3.8-5.5c1.3-1.2,2.7-1.8,4.3-1.8c2.3,0,3.5,1.5,3.5,4.6c0,1.3-0.2,2.9-0.7,4.7
				l-4.9,18c-0.3,1.1-0.4,1.8-0.4,2.3c0,1,0.4,1.5,1.2,1.5c0.7,0,1.3-0.5,1.9-1.4c0.6-0.9,1.3-2.6,1.9-4.9l0.7-2.3H170.5z"/>
			<path id="XMLID_391_" class="st5" d="M210.9,68.9l-1.3,4.5c-1.2,4.2-3.2,6.3-6.1,6.3c-1.5,0-2.5-0.6-3.1-1.7
				c-0.3-0.6-0.5-1.3-0.5-2.2c0-1.1,0.3-2.7,0.9-4.8l4.8-17.6c0.3-1.2,0.5-2.3,0.5-3.3c0-1.3-0.4-1.9-1.1-1.9c-1.9,0-4,2.7-6.4,8
				c-2.4,5.4-4.7,12.5-6.9,21.3l0-0.4l-0.3,1.6h-4.5l6.3-25.4c0.3-1.2,0.5-2.3,0.5-3.1c0-1.4-0.5-2-1.4-2c-1.2,0-2.6,1.2-4.2,3.6
				c-1.5,2.4-3,5.7-4.5,9.8c-1.5,4.2-2.8,8.7-3.9,13.7l-0.7,3.4h-4.4l6-26.4c0.2-1.1,0.3-1.9,0.3-2.3c0-1-0.3-1.5-1-1.5
				c-0.7,0-1.4,0.5-2,1.4c-0.6,1-1.2,2.6-1.9,4.8l-0.6,2.3h-1l1.3-4.5c1.2-4.2,3.2-6.3,6.1-6.3c1.9,0,2.9,1.2,2.9,3.7
				c0,1.1-0.3,2.7-0.8,4.9l-1.6,7.8c2-6,3.9-10.2,5.7-12.7c1.8-2.5,3.8-3.7,6-3.7s3.3,1.4,3.3,4.3c0,1.3-0.2,2.9-0.7,5l-1.8,8.3
				c1.4-4.3,2.7-7.7,4-10.3c1.2-2.5,2.5-4.4,3.8-5.5s2.7-1.8,4.3-1.8c2.3,0,3.5,1.5,3.5,4.6c0,1.3-0.2,2.9-0.7,4.7l-4.9,18
				c-0.3,1.1-0.4,1.8-0.4,2.3c0,1,0.4,1.5,1.2,1.5c0.7,0,1.3-0.5,1.9-1.4s1.3-2.6,1.9-4.9l0.7-2.3H210.9z"/>
			<path id="XMLID_388_" class="st5" d="M236.2,68.8h1l-1.3,4.5c-0.7,2.3-1.5,3.9-2.6,4.9c-1,1-2.1,1.5-3.2,1.5
				c-0.6,0-1.2-0.1-1.7-0.4c-0.5-0.3-0.8-0.7-1.1-1.2c-0.3-0.6-0.5-1.3-0.5-2.2c0-0.9,0.1-1.8,0.4-2.9c0.2-1.1,0.4-1.7,0.5-2
				l0.9-4.4c-1.6,4.6-3.2,7.9-4.9,10c-1.7,2.1-3.4,3.1-5.2,3.1c-1.5,0-2.7-0.7-3.5-2c-0.8-1.4-1.2-3.2-1.2-5.4c0-3.3,0.7-7,2.2-11.2
				c1.4-4.1,3.3-7.6,5.6-10.5c2.3-2.9,4.6-4.3,7-4.3c0.9,0,1.6,0.4,2.2,1.2c0.6,0.8,0.9,2,1,3.5l0.8-3.8c1.8-0.1,3.4-0.4,4.6-0.9
				L231,73.5c0,0.2-0.1,0.5-0.2,1c-0.1,0.5-0.2,0.9-0.2,1.3c0,1,0.4,1.5,1.1,1.5c1.5,0,2.8-2.1,3.9-6.3L236.2,68.8z M223.4,75.1
				c1.3-1.8,2.6-4.1,3.8-7.1c1.3-2.9,2.3-6.1,3.1-9.4l0.9-4.4c0-0.3,0.1-0.8,0.1-1.4c0-1.7-0.2-3-0.7-4c-0.5-1-1.2-1.4-2-1.4
				c-1.4,0-3,1.4-4.6,4.1c-1.6,2.7-2.9,6.1-4,10.1c-1.1,4-1.6,7.8-1.6,11.3c0,1.7,0.1,2.9,0.5,3.6c0.3,0.7,0.7,1.1,1.3,1.1
				C221,77.7,222.1,76.9,223.4,75.1z"/>
			<path id="XMLID_386_" class="st5" d="M245.6,73.6c-0.1,0.5-0.2,0.9-0.2,1.4c0,0.8,0.2,1.4,0.6,1.8c0.4,0.4,0.9,0.6,1.6,0.6
				c0.8,0,1.6-0.4,2.3-1.3c0.7-0.9,1.4-2.5,2.1-4.8l0.7-2.4h1l-1,3.9c-0.7,2.5-1.6,4.3-2.7,5.4c-1.1,1-2.5,1.6-4.1,1.6
				c-1.5,0-2.6-0.5-3.4-1.4c-0.7-0.9-1.1-2.2-1.1-3.8c0-1.1,0.2-2.2,0.5-3.5l5.3-22.7h-4.5l0.3-1.2h4.5l2.2-9.4
				c1.8-0.1,3.3-0.4,4.5-0.9l-2.4,10.2h6.6l-0.2,1.2h-6.8L245.6,73.6z"/>
			<path id="XMLID_383_" class="st5" d="M272.7,59.1c-3,2.5-6.5,4.5-10.4,6.1c-0.4,2.1-0.5,4-0.5,6c0,3.9,1.2,5.9,3.5,5.9
				c2.9,0,5.4-2.1,7.7-6.2l0.8,0.5c-1.1,2.3-2.5,4.2-4.3,5.8s-3.7,2.4-5.7,2.4c-2.1,0-3.7-0.7-4.9-2.2c-1.2-1.5-1.8-3.6-1.8-6.5
				c0-3.1,0.7-6.6,2.2-10.6c1.5-3.9,3.5-7.3,6-10c2.5-2.8,5.3-4.1,8.3-4.1c1.1,0,2,0.3,2.7,1c0.7,0.7,1.1,1.7,1.1,3
				C277.2,53.7,275.7,56.6,272.7,59.1z M268.8,49.8c-1.3,1.5-2.6,3.6-3.7,6.1c-1.2,2.5-2,5.3-2.6,8.1c3.2-1.4,5.4-2.7,6.8-3.9
				c1.2-1.2,2.2-2.6,2.9-4.3c0.7-1.7,1-3.5,1-5.5c0-1.1-0.1-1.8-0.2-2.2c-0.1-0.4-0.3-0.6-0.6-0.6C271.3,47.5,270.1,48.2,268.8,49.8
				z"/>
			<path id="XMLID_381_" class="st5" d="M302.8,68.9h1l-1.3,4.5c-1.2,4.2-3.2,6.3-6.1,6.3c-0.5,0-1-0.1-1.5-0.4
				c-0.5-0.3-0.8-0.7-1-1.2c-0.2-0.6-0.3-1.2-0.3-1.9c0-1.1,0.2-2.8,0.7-5.1l1.6-7.7c-1.9,5.9-3.8,10.1-5.7,12.6
				c-1.8,2.5-3.8,3.8-6,3.8c-2.8,0-4.2-1.6-4.2-4.7c0-1.3,0.2-2.8,0.7-4.6l4.9-18c0.3-1,0.4-1.7,0.4-2.3c0-1-0.4-1.5-1.2-1.5
				c-0.7,0-1.3,0.5-1.9,1.4c-0.6,0.9-1.3,2.6-1.9,4.9l-0.7,2.3h-1l1.3-4.5c1.2-4.2,3.2-6.3,6.1-6.3c2.3,0,3.5,1.3,3.5,3.8
				c0,1.2-0.3,2.8-0.8,4.8l-4.8,17.6c-0.3,1.2-0.5,2.3-0.5,3.1c0,1.4,0.5,2.1,1.6,2.1c1.3,0,2.7-1.2,4.3-3.5s3.1-5.6,4.7-9.8
				c1.5-4.2,2.9-8.9,4-14.2l0.6-3c1.9-0.1,3.4-0.4,4.6-0.9l-6.2,27.3c-0.2,1.1-0.3,1.9-0.3,2.4c0,0.9,0.3,1.4,1,1.4
				c0.7,0,1.4-0.5,2-1.4c0.6-1,1.2-2.6,1.9-4.8L302.8,68.9z"/>
			<path id="XMLID_379_" class="st5" d="M328.1,47.3c0.5,0.7,0.8,1.5,0.8,2.5c0,1.2-0.4,2.3-1.1,3.1c-0.7,0.9-1.5,1.3-2.5,1.3
				c-0.6,0-1.1-0.2-1.5-0.6c-0.4-0.4-0.5-0.9-0.5-1.6c0-0.9,0.2-1.7,0.6-2.4c0.4-0.7,1-1.2,1.7-1.5c-0.1-0.2-0.3-0.2-0.5-0.2
				c-1.8,0-3.8,2.4-5.9,7.2c-2.1,4.8-4.1,11.1-6,19l-1,4.9h-4.4l6-26.4c0.2-0.9,0.4-1.7,0.4-2.4c0-0.9-0.4-1.4-1.1-1.4
				c-0.7,0-1.4,0.5-2,1.4c-0.6,1-1.2,2.6-1.9,4.8l-0.7,2.3h-1l1.3-4.5c1.2-4.2,3.2-6.3,6.1-6.3c1.9,0,2.9,1.2,2.9,3.6
				c0,1.2-0.2,2.8-0.7,5.1l-1.6,7.8c1.8-6,3.5-10.2,5.1-12.7c1.6-2.5,3.4-3.7,5.3-3.7C326.9,46.3,327.6,46.6,328.1,47.3z"/>
		</g>
	</g>
	<g id="XMLID_4_">
		<path id="XMLID_42_" class="st5" d="M89.1,58.9c-4.8,3.2-10.3,5.8-16.4,7.8c-0.6,2.6-0.9,5.2-0.9,7.7c0,5.1,1.8,7.6,5.5,7.6
			c4.5,0,8.6-2.6,12.2-7.9l1.3,0.6c-1.7,2.9-4,5.4-6.8,7.5c-2.9,2.1-5.9,3.1-9,3.1c-3.3,0-5.8-0.9-7.7-2.8c-1.8-1.9-2.8-4.7-2.8-8.3
			c0-4,1.2-8.5,3.5-13.5c2.3-5,5.5-9.3,9.5-12.8c4-3.5,8.3-5.3,13-5.3c1.7,0,3.1,0.4,4.2,1.3c1.1,0.9,1.7,2.2,1.7,3.9
			C96.3,51.9,93.9,55.7,89.1,58.9z M83,46.9c-2.1,2-4,4.6-5.8,7.9C75.4,58,74,61.5,73,65.2c5-1.7,8.6-3.4,10.7-5.1
			c1.9-1.5,3.5-3.4,4.5-5.6c1.1-2.2,1.6-4.5,1.6-7.1c0-1.4-0.1-2.4-0.3-2.8c-0.2-0.5-0.5-0.7-0.9-0.7C87,44,85.1,44.9,83,46.9z"/>
		<path id="XMLID_58_" class="st5" d="M137.5,43.2c0.7,0.5,1,1.2,1,2.1c0,1-0.4,1.9-1.2,2.6c-0.8,0.8-1.8,1.1-3,1.1
			c-1.8,0-3.4-0.6-5-1.9c-3.3,3-6.2,7.6-8.5,13.8l1.9,16.9c0.2,1.3,0.5,2.3,0.9,2.8c0.4,0.6,1,0.8,1.7,0.8c0.9,0,1.8-0.5,2.6-1.5
			c0.8-1,1.7-2.9,2.7-5.7l1-2.9h1.5l-2,5.8c-1.9,5.4-5,8.1-9,8.1c-3.8,0-6-2.4-6.6-7.3l-1.2-10.3c-2.1,4.7-4.9,8.9-8.4,12.6
			c-1.6,1.7-3.1,2.9-4.3,3.7c-1.2,0.8-2.5,1.2-3.7,1.2c-1.2,0-2-0.3-2.6-0.8c-0.6-0.5-0.9-1.2-0.9-2.2c0-1,0.4-1.9,1.2-2.6
			c0.8-0.8,1.8-1.1,2.9-1.1c1.7,0,3.3,0.6,5,1.9c2.2-2,4.2-4.4,6-7.2c1.8-2.8,3.3-5.6,4.5-8.4l-1.7-15.2c-0.2-1.3-0.5-2.3-0.9-2.8
			c-0.4-0.6-1-0.8-1.7-0.8c-0.9,0-1.8,0.5-2.6,1.5c-0.8,1-1.7,2.9-2.7,5.7l-1,2.9H102l2-5.8c1.9-5.4,5-8.1,9-8.1
			c1.9,0,3.4,0.5,4.5,1.6c1.1,1.1,1.7,3,2.1,5.6l0.9,8.1c1.7-4,3.9-7.5,6.6-10.6c1.5-1.7,2.8-3,4.1-3.7c1.2-0.7,2.5-1.1,3.8-1.1
			C136,42.5,136.9,42.7,137.5,43.2z"/>
		<path id="XMLID_60_" class="st5" d="M177.2,45.3c1.4,1.9,2.2,4.6,2.2,8.3c0,4.3-0.9,8.9-2.8,13.9c-1.9,5-4.6,9.2-8.1,12.6
			c-3.5,3.4-7.6,5.2-12.2,5.2c-1.4,0-2.7-0.4-3.9-1.2c-1.2-0.8-2-1.9-2.5-3.4l-3,10.4c-0.2,0.6-0.3,1.3-0.3,1.9
			c0,1.4,0.6,2.3,1.7,2.9c1.2,0.6,2.8,0.9,5,0.9l-0.5,1.7l-1.7-0.1c-4.6-0.2-7.6-0.2-8.9-0.2c-1.4,0-4.3,0.1-8.8,0.3l0.5-1.7
			c1.9,0,3.3-0.3,4.1-1c0.8-0.7,1.5-2,2.1-3.9l14.8-52.7c-1.6,3.5-3.4,6.6-5.5,9.3c-2.1,2.7-4.7,5.5-7.8,8.5l-0.9-1
			c2.5-2.4,4.5-4.6,6.2-6.5s3.3-4.2,5-6.9c1.7-2.7,3.3-6,4.9-10l0.3-1.1c2.8-0.1,5.2-0.5,7.2-1.1L156,59.1
			c2.5-5.8,4.9-10.1,7.4-12.7c2.4-2.6,5-3.9,7.8-3.9C173.7,42.5,175.7,43.4,177.2,45.3z M164.1,78.2c2.5-3.5,4.6-7.8,6.1-12.8
			c1.6-5,2.3-9.5,2.3-13.6c0-2.3-0.3-4-1-5.1c-0.7-1.2-1.6-1.7-2.7-1.7c-1.5,0-3.2,1.2-5.2,3.6c-2,2.4-4,5.6-6,9.7
			c-2,4.1-3.8,8.5-5.3,13.3l-2.1,7.2c0.6,1.7,1.4,2.9,2.4,3.6c0.9,0.7,2.1,1.1,3.4,1.1C158.9,83.5,161.6,81.7,164.1,78.2z"/>
		<path id="XMLID_63_" class="st5" d="M208,58.9c-4.8,3.2-10.3,5.8-16.4,7.8c-0.6,2.6-0.9,5.2-0.9,7.7c0,5.1,1.8,7.6,5.5,7.6
			c4.5,0,8.6-2.6,12.2-7.9l1.3,0.6c-1.7,2.9-4,5.4-6.8,7.5c-2.9,2.1-5.9,3.1-9,3.1c-3.3,0-5.8-0.9-7.7-2.8c-1.8-1.9-2.8-4.7-2.8-8.3
			c0-4,1.2-8.5,3.5-13.5c2.3-5,5.5-9.3,9.5-12.8c4-3.5,8.3-5.3,13-5.3c1.7,0,3.1,0.4,4.2,1.3c1.1,0.9,1.7,2.2,1.7,3.9
			C215.2,51.9,212.8,55.7,208,58.9z M202,46.9c-2.1,2-4,4.6-5.8,7.9c-1.8,3.3-3.2,6.7-4.1,10.4c5-1.7,8.6-3.4,10.7-5.1
			c1.9-1.5,3.5-3.4,4.5-5.6c1.1-2.2,1.6-4.5,1.6-7.1c0-1.4-0.1-2.4-0.3-2.8c-0.2-0.5-0.5-0.7-0.9-0.7C206,44,204.1,44.9,202,46.9z"
			/>
		<path id="XMLID_67_" class="st5" d="M250.9,43.7c0.8,0.8,1.3,1.9,1.3,3.2c0,1.6-0.6,2.9-1.7,4s-2.4,1.7-3.9,1.7
			c-0.9,0-1.7-0.2-2.3-0.8c-0.6-0.5-0.9-1.2-0.9-2.1c0-1.2,0.3-2.2,0.9-3.1c0.6-0.8,1.5-1.5,2.6-2c-0.2-0.2-0.5-0.3-0.9-0.3
			c-2.8,0-5.9,3.1-9.3,9.2c-3.3,6.1-6.5,14.2-9.4,24.3l-1.6,6.2h-6.9l9.5-33.9c0.4-1.2,0.6-2.2,0.6-3.1c0-1.2-0.6-1.8-1.7-1.8
			c-1.2,0-2.2,0.6-3.2,1.9c-1,1.2-2,3.3-3,6.2l-1,2.9h-1.5l2-5.8c1.9-5.4,5.1-8.1,9.6-8.1c3,0,4.5,1.5,4.5,4.6
			c0,1.5-0.4,3.6-1.1,6.5l-2.5,10c2.8-7.6,5.5-13,8-16.2c2.5-3.2,5.3-4.8,8.4-4.8C248.9,42.5,250,42.9,250.9,43.7z"/>
		<path id="XMLID_70_" class="st5" d="M259.5,77.4c-0.2,0.6-0.2,1.2-0.2,1.7c0,1.1,0.3,1.8,0.9,2.4c0.6,0.5,1.4,0.8,2.4,0.8
			c1.3,0,2.5-0.6,3.7-1.7c1.1-1.1,2.3-3.2,3.4-6.2l1.1-3.1h1.5l-1.7,5c-1.1,3.3-2.5,5.6-4.3,6.9c-1.8,1.3-3.9,2-6.5,2
			c-2.4,0-4.1-0.6-5.3-1.7c-1.2-1.2-1.7-2.8-1.7-4.8c0-1.4,0.2-2.9,0.7-4.5l8.4-29.1h-7.1l0.4-1.6h7.1l3.5-12
			c2.8-0.1,5.2-0.5,7.1-1.1l-3.7,13.1h10.4l-0.2,1.6h-10.7L259.5,77.4z"/>
	</g>
</g>
<g id="Mode_Isolation">
	<g id="XMLID_1_">
	</g>
	<g id="XMLID_27_">
	</g>
	<g id="XMLID_168_">
	</g>
	<g id="XMLID_169_">
	</g>
	<g id="XMLID_170_">
	</g>
	<g id="XMLID_171_">
	</g>
</g>
</svg>
