<?xml version="1.0" encoding="utf-8"?>
<!-- Generator: Adobe Illustrator 19.0.0, SVG Export Plug-In . SVG Version: 6.00 Build 0)  -->
<svg version="1.1" id="Calque_1" xmlns="http://www.w3.org/2000/svg" xmlns:xlink="http://www.w3.org/1999/xlink" x="0px" y="0px"
	 viewBox="0 0 337.4 234.5" style="enable-background:new 0 0 337.4 234.5;" xml:space="preserve">
<style type="text/css">
	.st0{fill:#3C3C3B;}
</style>
<g>
	<g>
		<path class="st0" d="M10.1,116.1c0,2.2,0.9,3.2,2.8,3.2c1.6,0,3.1-0.9,4.5-2.8c1.4-1.9,2.9-5.1,4.5-9.5l1.6-4.5h2.3l-3,8.9
			c-2.9,8.3-7.8,12.5-14.5,12.5c-5.6,0-8.3-2.6-8.3-7.9c0-2.3,0.6-5.4,1.7-9.1l19.7-65.4c0.4-1.5,0.6-2.6,0.6-3.4
			c0-1.6-0.6-2.8-1.9-3.5c-1.3-0.7-3.4-1.1-6.3-1.1l0.8-2.5c4.3,0,8.1-0.5,11.5-1.3c3.4-0.8,6.7-2,10-3.7l-25.3,85.9
			C10.4,113.6,10.1,115.1,10.1,116.1"/>
		<path class="st0" d="M62,65.1c-3.2,3-6.2,7-8.9,12s-4.9,10.3-6.4,16c8-2.8,13.4-5.4,16.5-7.8c3-2.3,5.3-5.1,7-8.5
			c1.7-3.3,2.5-6.9,2.5-10.8c0-2.2-0.2-3.6-0.5-4.3c-0.3-0.7-0.8-1.1-1.5-1.1C68.1,60.6,65.2,62.1,62,65.1 M67.5,115.6
			c-2.5,2.5-5.3,4.5-8.5,6c-3.1,1.5-6.3,2.3-9.6,2.3c-5,0-8.9-1.5-11.7-4.4c-2.8-2.9-4.2-7.2-4.2-12.7c0-6.1,1.8-13,5.4-20.7
			c3.6-7.7,8.4-14.3,14.6-19.7c6.1-5.4,12.8-8.1,19.9-8.1c2.6,0,4.7,0.7,6.4,2.1s2.5,3.3,2.5,5.9c0,6.5-3.6,12.2-10.9,17.1
			c-7.3,4.8-15.7,8.9-25.2,12.1c-0.9,4-1.4,7.9-1.4,11.7c0,7.8,2.8,11.6,8.3,11.6c6.9,0,13.1-4,18.7-12.1l2,0.9
			C72.1,110.5,70,113.1,67.5,115.6"/>
		<path class="st0" d="M212.1,60.3c6.2-21.2,12.5-36.4,19-45.7C237.7,4.8,245.9,0,255.6,0c4.9,0,8.4,1.1,10.5,3.2
			c2.1,2.1,3.2,4.9,3.2,8.3c0,2.7-0.5,5.3-1.6,7.8c-1,2.5-2.6,4.6-4.6,6.2c-2,1.6-4.5,2.4-7.3,2.4c-3,0-5.2-0.9-6.6-2.7
			c-1.4-1.8-2.1-3.8-2.1-6.2c0-2.4,0.7-4.9,2.1-7.5c1.4-2.6,3.1-4.8,5.2-6.8h-0.7c-7.4,0.2-13.6,4.1-18.6,11.5
			c-6.7,10.1-13.7,27.7-21,52.9c-7.3,25.2-15.5,59.6-24.8,103.2h-5L132.6,26.1c-7.5,38.2-14.5,70.4-21.1,96.6
			c-6.6,26.2-12.9,43.3-18.9,51.3c-3.5,4.4-7,7.9-10.7,10.5c-3.7,2.6-8.2,3.8-13.7,3.8c-9,0-13.5-4-13.5-11.9c0-2.6,0.5-5.1,1.6-7.6
			c1-2.5,2.6-4.5,4.6-6.1c2-1.6,4.4-2.4,7.2-2.4c3.1,0,5.3,0.9,6.7,2.7c1.3,1.8,2,3.8,2,6.2c0,2.4-0.7,4.9-2.1,7.5
			c-1.4,2.6-3.1,4.8-5.2,6.8h0.7c7.8-0.3,14.1-4.3,18.9-11.9c5.8-9.1,11.7-25.5,17.9-49.3c6.2-23.8,12.9-54.7,20.3-92.7
			c0.3-1.8,0.4-3.5,0.4-5.1c0-2.5-0.5-4.4-1.6-5.7c-1.1-1.3-2.8-2.2-5.3-2.7c-2.4-0.5-6-0.9-10.7-1l1.1-4.6
			c4.9,0.4,11.7,0.7,20.3,0.7c7.1,0,13.2-0.2,18.4-0.7l43,125.6C199.4,106.7,205.8,81.4,212.1,60.3"/>
		<path class="st0" d="M218.1,141.9c-5,4.7-9.7,11.1-14.1,19c-4.4,7.9-7.7,16.3-10,25.2c12.5-4.4,21.2-8.5,26-12.3
			c4.7-3.7,8.4-8.1,11-13.4c2.6-5.2,3.9-10.9,3.9-17.1c0-3.4-0.2-5.7-0.7-6.8c-0.5-1.1-1.3-1.7-2.3-1.7
			C227.7,134.8,223.1,137.2,218.1,141.9 M226.7,221.4c-4,3.9-8.4,7-13.4,9.4c-4.9,2.4-10,3.6-15.1,3.6c-7.9,0-14-2.3-18.5-6.9
			c-4.4-4.6-6.7-11.3-6.7-20c0-9.6,2.8-20.5,8.5-32.6c5.6-12.1,13.3-22.5,22.9-31c9.6-8.5,20.1-12.8,31.4-12.8
			c4.1,0,7.5,1.1,10.1,3.3c2.7,2.2,4,5.3,4,9.3c0,10.3-5.7,19.3-17.2,26.9c-11.5,7.6-24.7,14-39.8,19.1c-1.4,6.3-2.1,12.5-2.1,18.4
			c0,12.2,4.4,18.3,13.1,18.3c10.9,0,20.7-6.4,29.4-19.1l3.1,1.5C234,213.4,230.7,217.5,226.7,221.4"/>
		<path class="st0" d="M264.7,184.7c3.6-1.5,7-2.3,10.4-2.3c3.1,0,6.3,0.6,9.7,1.9c3.4,1.3,6.3,2.3,8.6,3c2.4,0.8,4.9,1.2,7.7,1.2
			c3.3,0,5.9-0.8,7.7-2.4c1.8-1.6,2.8-4,2.8-7.2c0-3.4-1.4-6.3-4.2-8.8c-2.8-2.5-6.4-4.2-10.9-5.1l1.1-2.8c6,1.3,10.6,3.5,13.8,6.7
			c3.2,3.1,4.8,7.1,4.8,11.9c0,3.6-0.8,7-2.3,10c-1.5,3-4,5.5-7.3,7.4c-3.3,1.9-7.6,2.8-12.8,2.8c-4.4,0-8.7-0.9-12.8-2.7
			c-4.2-1.8-7.5-3.2-10.1-4.1c-2.6-0.9-6-1.4-10.1-1.4c-3.6,0-6.7,0.5-9.4,1.5c-2.7,1-5.3,2.9-8,5.6h-5.2l86.7-91.3
			c-5.8,3.7-10.5,6.3-14,7.8c-3.5,1.5-7,2.3-10.4,2.3c-3.1,0-6.3-0.6-9.7-1.9c-3.4-1.3-6.3-2.3-8.6-3.1c-2.4-0.8-4.9-1.2-7.7-1.2
			c-3.3,0-5.9,0.8-7.7,2.4c-1.8,1.6-2.8,4-2.8,7.2c0,3.4,1.4,6.3,4.2,8.8c2.8,2.5,6.4,4.1,10.9,5l-1.1,2.9
			c-12.5-2.9-18.7-9.1-18.7-18.7c0-3.6,0.8-7,2.3-10c1.5-3,4-5.5,7.3-7.4c3.3-1.9,7.6-2.8,12.8-2.8c4.4,0,8.6,0.9,12.8,2.7
			c4.2,1.8,7.5,3.2,10.1,4.1c2.6,0.9,6,1.4,10.1,1.4c3.6,0,6.7-0.5,9.4-1.5c2.7-1,5.3-2.9,8-5.6h5.2l-86.7,91.3
			C256.5,188.8,261.1,186.2,264.7,184.7"/>
	</g>
</g>
</svg>
