<?xml version="1.0" encoding="utf-8"?>
<!-- Generator: Adobe Illustrator 19.0.0, SVG Export Plug-In . SVG Version: 6.00 Build 0)  -->
<svg version="1.1" xmlns="http://www.w3.org/2000/svg" xmlns:xlink="http://www.w3.org/1999/xlink" x="0px" y="0px"
	 viewBox="0 0 114.9 70.9" style="enable-background:new 0 0 114.9 70.9;" xml:space="preserve">
<style type="text/css">
	.st0{fill:#3D3D3B;}
	.st1{fill:#FFFFFF;}
	.st2{fill:none;}
</style>
<g id="Calque_1">
	<g id="XMLID_137_">
		<path d="M-606.8,15.8c1.3,0,2.6,0.2,3.6,0.7c1.1,0.5,2,1.1,2.6,2c0.7,0.8,1.1,1.8,1.4,2.8c0.3,1.1,0.3,2.3,0,3.5
			c-0.5,2.5-1.8,4.6-3.9,6.4c-2.1,1.8-4.4,2.6-6.8,2.6h-10.7l0.1-0.5c1.5,0,2.5-0.8,2.8-2.2l2.9-12.5c0.3-1.5-0.2-2.2-1.8-2.3
			l0.1-0.5H-606.8z M-614.3,30.3c-0.5,2,0.5,2.9,2.8,2.9c1,0,1.9-0.1,2.7-0.4c0.8-0.3,1.7-0.8,2.6-1.6c0.9-0.8,1.7-1.7,2.2-2.8
			c0.7-1.1,1.1-2.4,1.4-3.7c0.5-2.3,0.1-4.3-1-6c-0.5-0.8-1.3-1.4-2.3-1.8c-1-0.4-2-0.6-3.1-0.6h-2.2L-614.3,30.3z"/>
		<path d="M-590.7,19.5c0.6,0.4,0.9,1,0.9,1.8c0,0.7-0.3,1.3-0.7,1.9c-0.4,0.5-1,1-1.7,1.4c-0.7,0.3-1.4,0.6-2.2,0.8
			c-0.8,0.2-1.5,0.3-2.4,0.4c-0.2,2.1,0.4,3.2,1.6,3.4c0.9,0.1,1.7-0.1,2.5-0.7c0.9-0.7,1.7-1.6,2.3-2.9h0.5
			c-0.6,1.4-1.4,2.5-2.3,3.2c-0.9,0.7-2,1.1-3.3,1.1c-1.5,0-2.6-0.5-3.3-1.5c-0.7-1-0.9-2.2-0.6-3.8c0.3-1.5,1.1-2.8,2.3-3.9
			c0.6-0.5,1.3-0.9,2-1.2c0.8-0.3,1.5-0.5,2.1-0.5C-592,18.9-591.3,19.1-590.7,19.5z M-595.5,21.4c-0.7,1.2-1.2,2.4-1.3,3.8
			c1-0.1,1.8-0.3,2.5-0.5c0.7-0.3,1.3-0.8,1.7-1.5c0.5-0.9,0.7-1.8,0.5-2.7c-0.2-0.7-0.6-1.1-1.2-1C-594,19.6-594.7,20.2-595.5,21.4
			z M-592.4,15.5l-2.5,2.2l-0.4-0.3l2.1-3.3h2.3L-592.4,15.5z"/>
		<path d="M-583.1,25c0.4,0.4,0.8,0.6,1.3,0.6c0.7,0,1.4-0.7,2.1-2h0.5l-3.6,15.6c-0.6,2.4-1.6,4.3-3.1,5.5c-1.7,1.5-3.7,2.2-6,2.1
			c-1.1,0-2.1-0.2-2.8-0.7c-0.7-0.4-1.1-0.8-1.4-1.4c-0.3-0.6-0.5-1.3-0.4-2c0.1-0.7,0.3-1.1,0.6-1.5c0.4-0.4,0.8-0.6,1.2-0.6
			c0.4,0,0.7,0.1,0.9,0.3c0.2,0.3,0.3,0.6,0.2,0.9c-0.1,0.2-0.2,0.5-0.3,0.7c-0.4,0.6-0.6,1.1-0.6,1.5c-0.1,0.4,0,0.8,0.3,1.2
			c0.4,0.4,1.1,0.7,2.1,0.7c0.7,0,1.3-0.1,1.9-0.4c0.6-0.3,1.1-0.6,1.4-1c0.4-0.4,0.8-0.9,1-1.5c0.5-1,0.9-2.2,1.3-3.6
			c0.6-2.4,1-4,1.2-4.7c-0.5,1.2-1.2,2.2-2.1,3c-0.9,0.8-2,1.2-3.2,1.1c-1.5-0.1-2.6-0.8-3.3-2.1c-0.7-1.5-0.8-3.3-0.3-5.4
			c0.6-2.3,1.6-4.2,3-5.7c1.5-1.5,3.1-2.2,4.8-2.2C-585,23.5-584,24-583.1,25z M-588.2,26.4c-0.9,1.4-1.5,2.8-1.9,4.3
			c-0.3,1.5-0.5,2.9-0.4,4.4c0.1,1.6,0.6,2.4,1.4,2.6c0.9,0.2,1.8-0.4,2.6-1.7c0.8-1.3,1.4-2.6,1.7-3.9l0.7-3.1
			c0.6-2.9,0.2-4.3-1.4-4.3C-586.4,24.5-587.3,25.1-588.2,26.4z"/>
		<path d="M-572,31.1c-1.1,2.4-2.6,3.6-4.5,3.6c-1.1,0-2-0.4-2.6-1.2c-0.6-0.8-0.7-1.8-0.4-3.1l1.5-5.6c0.3-1.3,0.3-1.9,0-2
			c-0.6-0.1-1.1,0.9-1.6,3.1l-0.6-0.1c0.3-2.8,1.4-4.2,3.2-4.1c0.8,0.1,1.3,0.3,1.7,0.9c0.4,0.5,0.4,1.4,0.1,2.6l-1.2,4.6
			c-0.4,1.5-0.5,2.6-0.2,3.2c0.2,0.5,0.7,0.8,1.3,0.6c0.9-0.2,1.7-1,2.5-2.4c0.9-1.6,1.8-4.6,2.6-9.1h3l-2.2,9.6
			c-0.3,1.2-0.3,1.9,0,2c0.6,0.1,1.1-0.9,1.6-3h0.6c-0.4,2.9-1.5,4.2-3.3,4.1C-572.1,34.6-572.6,33.4-572,31.1z"/>
		<path d="M-556.9,27.4c0.6,0.6,1.1,1.2,1.2,1.9c0.2,0.6,0.2,1.1,0,1.7c-0.2,0.6-0.6,1-1.3,1c-0.8,0-1.3-0.3-1.5-1
			c-0.1-0.3-0.1-0.7-0.1-1.2c0.1-0.6,0-1,0-1.3c-0.1-0.5-0.3-0.8-0.6-1c-0.6-0.3-1.3-0.5-2.2-0.5c-1.7,0.1-2.8,0.7-3.3,1.8
			c-0.3,0.9-0.2,1.6,0.2,2.3c0.4,0.5,1.4,1.2,3,2c1.7,0.9,2.8,1.5,3.3,1.9c1.5,1.2,1.9,2.9,1.3,5.1c-0.5,1.6-1.5,2.8-3.1,3.9
			c-0.9,0.6-2.2,0.9-3.8,1c-2,0-3.6-0.4-4.7-1.2c-0.7-0.6-1.3-1.2-1.6-1.9c-0.3-0.7-0.5-1.5-0.4-2.4c0.1-0.7,0.3-1.3,0.8-1.7
			c0.4-0.3,0.8-0.5,1.3-0.5c0.4,0,0.8,0.2,1.1,0.5c0.3,0.3,0.4,0.7,0.3,1.2c0,0.4-0.2,0.8-0.6,1.3c-0.3,0.5-0.4,0.9-0.4,1.3
			c0,0.5,0.2,0.9,0.5,1.3c0.4,0.5,1.2,0.8,2.3,1c1.2,0.2,2.4,0.1,3.3-0.2c0.9-0.4,1.6-1,1.9-1.8c0.3-0.7,0.3-1.4,0-2.1
			c-0.2-0.4-0.6-0.9-1.3-1.3c-0.3-0.2-1.1-0.6-2.6-1.3c-0.8-0.4-1.5-0.8-2.1-1.2c-1.9-1.3-2.5-3.1-1.8-5.3c0.5-1.4,1.3-2.5,2.6-3.3
			c1.3-0.9,3-1.3,4.8-1.2C-559,26.1-557.8,26.6-556.9,27.4z"/>
		<path d="M-550.3,32.5l-1.2,5.4h2.8l-0.2,0.7h-2.9l-2.4,10.7c-0.4,1.4-0.4,2.2,0,2.3c0.7,0.1,1.3-1,1.8-3.4h0.7
			c-0.3,3.3-1.5,4.8-3.6,4.7c-0.9-0.1-1.6-0.4-2.1-1c-0.5-0.7-0.6-1.7-0.3-3l2.3-10.2h-1.9l0.2-0.7h1.9l1.2-5.4H-550.3z"/>
		<path d="M-538.9,31.3c0.3,0.3,0.7,0.5,1.3,0.5c0.6,0,1.2-0.7,2-1.9h0.5l-2.7,11.4c-0.4,1.4-0.4,2.2,0,2.3c0.7,0.1,1.3-1,1.8-3.4
			h0.7c-0.3,3.3-1.5,4.9-3.6,4.7c-0.9-0.1-1.6-0.4-2-1.1c-0.5-0.7-0.5-1.7-0.2-2.9c-0.5,1.2-1.1,2.1-2.1,3c-0.9,0.8-1.9,1.2-3.2,1.1
			c-1.5-0.1-2.5-0.8-3.2-2.1c-0.7-1.5-0.8-3.2-0.3-5.3c0.5-2.3,1.5-4.2,3-5.6c1.5-1.4,3-2.1,4.6-2.1
			C-540.7,29.8-539.7,30.3-538.9,31.3z M-543.8,32.7c-0.9,1.3-1.5,2.7-1.8,4.2c-0.3,1.4-0.5,2.8-0.4,4.3c0.1,1.5,0.5,2.4,1.4,2.5
			c0.9,0.2,1.7-0.4,2.6-1.6c0.8-1.3,1.4-2.6,1.7-3.9l0.7-3c0.6-2.8,0.2-4.2-1.3-4.2C-542.1,30.8-543,31.4-543.8,32.7z"/>
		<path d="M-527.9,20.3l-1.2,5.2h2.7l-0.1,0.7h-2.7l-3.5,15.2c-0.4,1.4-0.4,2.1,0,2.2c0.7,0.1,1.3-1,1.8-3.3h0.7
			c-0.3,3.2-1.4,4.7-3.4,4.5c-0.9,0-1.5-0.4-2-1c-0.5-0.6-0.6-1.6-0.3-2.9l3.4-14.7h-1.8l0.2-0.7h1.8l1.2-5.2H-527.9z"/>
		<path d="M-528.9,40.5c0.3-1.2,0.3-1.9-0.1-1.9c-0.6-0.1-1.1,0.9-1.5,2.9h-0.6c0.2-2.8,1.3-4.2,3.1-4.1c0.8,0,1.4,0.3,1.8,0.9
			c0.4,0.5,0.5,1.4,0.3,2.6l-1.4,6.4c-0.3,1.2-0.2,1.9,0.1,1.9c0.6,0.1,1.1-0.9,1.5-2.9h0.6c-0.2,2.8-1.3,4.2-3.1,4.1
			c-0.8-0.1-1.4-0.3-1.8-0.9c-0.5-0.6-0.6-1.4-0.3-2.6c0.4-1.8,0.7-3.2,1-4.3L-528.9,40.5z M-524.7,32.9c0,0.5-0.2,1-0.6,1.4
			c-0.4,0.4-0.9,0.6-1.4,0.6c-0.5,0-1-0.2-1.4-0.6c-0.4-0.4-0.6-0.9-0.6-1.4c0-0.5,0.2-1,0.6-1.4c0.4-0.4,0.9-0.6,1.4-0.6
			c0.5,0,1,0.2,1.4,0.6S-524.7,32.4-524.7,32.9z"/>
		<path d="M-508.1,39.7c1.3,1.6,1.7,3.7,1.1,6.3c-0.5,2.5-1.9,4.6-4.2,6.4c-2.2,1.8-4.7,2.7-7.3,2.7c-2.6,0-4.7-0.8-6.1-2.4
			c-1.4-1.7-1.9-3.7-1.4-6.1c0.6-2.6,1.9-4.7,4.1-6.5c2.2-1.8,4.7-2.7,7.6-2.7C-511.4,37.3-509.3,38.1-508.1,39.7z M-518.4,40.7
			c-1.2,1.6-2,3.5-2.5,5.8c-0.5,2.2-0.5,4.1,0.1,5.6c0.5,1.5,1.4,2.2,2.6,2.2c1.3,0,2.5-0.8,3.7-2.4c1.2-1.5,2.1-3.5,2.6-5.8
			c0.5-2.4,0.5-4.3,0.1-5.8c-0.4-1.4-1.3-2.1-2.7-2.1C-515.9,38.2-517.2,39.1-518.4,40.7z"/>
		<path d="M-504.8,34.9c1.3-2.9,3.1-4.4,5.4-4.4c1.4,0,2.4,0.5,3.1,1.4c0.7,0.9,0.9,2.1,0.5,3.7l-1.8,6.9c-0.4,1.5-0.4,2.3,0,2.4
			c0.7,0.1,1.4-1,1.9-3.6h0.8c-0.4,3.4-1.7,5-3.8,4.9c-0.9-0.1-1.6-0.4-2.1-1.1c-0.4-0.7-0.5-1.7-0.1-3.1l1.4-5.6
			c0.5-1.9,0.6-3.1,0.2-3.8c-0.3-0.7-0.8-0.9-1.6-0.8c-1,0.2-2,1.2-3,2.9c-1.1,1.9-2.1,5.5-3.1,10.9h-3.5l2.7-11.5
			c0.4-1.5,0.3-2.3,0-2.4c-0.7-0.2-1.3,1-1.9,3.5h-0.7c0.4-3.5,1.8-5.1,4-4.9C-504.7,30.7-504.1,32.2-504.8,34.9z"/>
	</g>
	<g id="XMLID_239_">
		<path class="st0" d="M-210.9,35.7l-2.7,4.4L-217,23c-0.4-2.3,0.6-3.4,3-3.4l0.2-0.7h-11.4l-0.2,0.7c1.6,0,2.7,1.1,3.1,3.4l4.7,23
			h1.3l4.9-7.9c0-0.3,0-0.6,0.1-0.9C-211.2,36.7-211,36.2-210.9,35.7z"/>
		<path class="st0" d="M-202.1,23c1.4-2.3,3-3.4,4.9-3.4l0.2-0.7h-6.9l-0.2,0.7c2.2,0,2.5,1.1,1.1,3.4l-3.6,5.9
			c0.6-0.5,1.2-1,1.8-1.4L-202.1,23z"/>
		<path d="M-208.3,44.3c1.4,1.8,3.3,2.7,5.8,2.7c0.1,0,0.1,0,0.2,0c2.6-0.1,5-1.1,7.1-3c2.2-2,3.6-4.4,4.1-7.2
			c0.6-2.9,0.2-5.2-1.1-7c-1.2-1.7-3.1-2.6-5.9-2.6c-0.1,0-0.2,0-0.2,0c-2.8,0.1-5.2,1.1-7.4,3c-2.1,2-3.4,4.4-4,7.2
			C-210.1,40.2-209.7,42.5-208.3,44.3z M-204.7,37.4c0.5-2.6,1.3-4.7,2.5-6.5c1.2-1.8,2.5-2.7,3.7-2.7c0,0,0.1,0,0.1,0
			c1.3,0,2.1,0.8,2.5,2.4c0.4,1.7,0.4,3.8-0.1,6.4c-0.5,2.6-1.3,4.8-2.5,6.5c-1.2,1.8-2.4,2.7-3.6,2.7c-1.2,0-2-0.8-2.6-2.5
			C-205.2,41.9-205.2,39.8-204.7,37.4z"/>
		<path class="st0" d="M-183.4,29.3l-1.6,6.9h3.7l-0.2,0.9h-3.7l-3.1,13.8c-0.5,1.9-0.5,2.8,0,2.9c0.9,0.2,1.7-1.3,2.4-4.4h0.9
			c-0.4,4.2-1.9,6.2-4.6,6c-1.1-0.1-2-0.5-2.7-1.3c-0.6-0.8-0.8-2.1-0.4-3.9l3-13.1h-2.5l0.2-0.9h2.4l1.6-6.9H-183.4z"/>
		<path d="M-175.9,35.1c0.7-1.8,1.8-2.9,3.3-3.3c0.9-0.2,1.7-0.1,2.4,0.2c0.8,0.3,1.4,0.8,1.9,1.4c0.4,0.5,0.6,1.1,0.6,1.8
			c0,0.6-0.1,1-0.3,1.3c-0.3,0.3-0.7,0.4-1.2,0.4c-0.4-0.1-0.7-0.3-1-0.6c-0.1-0.2-0.3-0.6-0.5-1.2c-0.2-0.7-0.4-1.2-0.6-1.4
			c-0.3-0.4-0.7-0.6-1.1-0.6c-0.7,0-1.3,0.3-1.9,1c-0.6,0.8-1.3,2.6-1.9,5.5l-2,8.8h-4l2.9-12.6c0.4-1.6,0.4-2.5,0-2.6
			c-0.8-0.2-1.5,1.1-2.1,3.9h-0.8c0.5-3.6,1.8-5.4,4.1-5.3C-176.6,31.8-175.8,32.9-175.9,35.1z"/>
		<path d="M-129.5,36.5l-3.1,5.1l-3.1-16c-0.4-2.1,0.6-3.2,2.8-3.2l0.2-0.7h-10.6l-0.2,0.7c1.5,0,2.5,1.1,2.9,3.2l4.4,21.5h1.2
			l5.6-9.1C-129.5,37.5-129.5,37-129.5,36.5z"/>
		<path class="st1" d="M-129,35.7l-0.5,0.8c0,0.5,0,1,0,1.5l0.4-0.6C-129.1,36.8-129.1,36.3-129,35.7z"/>
		<path class="st1" d="M-128.5,35.2c0-0.2,0.1-0.4,0.2-0.6l-0.6,1c-0.1,0.6-0.1,1.2-0.1,1.7l0.5-0.7
			C-128.6,36.2-128.6,35.7-128.5,35.2z"/>
		<path d="M-106.8,33.2c0.7-1.8,1.7-2.8,3.1-3.1c0.8-0.2,1.6-0.1,2.3,0.2c0.8,0.3,1.4,0.7,1.8,1.4c0.3,0.5,0.5,1.1,0.6,1.7
			c0,0.6-0.1,1-0.3,1.3c-0.3,0.3-0.6,0.4-1.1,0.4c-0.4-0.1-0.7-0.3-0.9-0.6c-0.1-0.2-0.3-0.6-0.5-1.1c-0.2-0.7-0.4-1.1-0.5-1.3
			c-0.3-0.4-0.7-0.6-1.1-0.6c-0.7,0-1.3,0.3-1.8,1c-0.6,0.7-1.2,2.5-1.9,5.3l-2,8.5h-3.8l2.8-12.1c0.4-1.5,0.4-2.4,0-2.5
			c-0.7-0.2-1.4,1.1-2,3.7h-0.8c0.4-3.5,1.7-5.2,3.9-5.1C-107.5,30.1-106.7,31.1-106.8,33.2z"/>
		<path class="st0" d="M-87.3,25l1.8-8c0.5-2.1-0.1-2.9-1.7-2.5l0.2-0.7l6.9-1.6c-2.2,9.6-4.2,17.9-5.8,24.8
			c-0.4,1.8-0.4,2.7,0.1,2.8c0.8,0.2,1.6-1.2,2.2-4.2h0.9c-0.4,4-1.8,5.9-4.4,5.7c-1.1-0.1-1.9-0.5-2.4-1.4c-0.6-0.9-0.6-2-0.2-3.5
			c-0.6,1.4-1.4,2.6-2.5,3.6c-1.1,1-2.3,1.4-3.8,1.3c-1.8-0.1-3.1-1-3.8-2.5c-0.8-1.8-1-3.9-0.3-6.4c0.7-2.8,1.9-5,3.6-6.7
			c1.8-1.7,3.6-2.6,5.6-2.6C-89.6,23.3-88.4,23.9-87.3,25z M-93.3,26.6c-1,1.5-1.7,3.2-2.2,5c-0.4,1.6-0.6,3.3-0.5,5.2
			c0.1,1.8,0.7,2.9,1.7,3c1.1,0.2,2.1-0.5,3.1-2c1-1.5,1.7-3.1,2-4.7l0.8-3.6c0.7-3.4,0.2-5.1-1.6-5.1
			C-91.2,24.4-92.3,25.1-93.3,26.6z"/>
		<path d="M-80.2,32.5c0.4-1.7,0.3-2.6-0.1-2.7c-0.8-0.2-1.5,1.2-2,4.1h-0.9c0.3-3.9,1.8-5.8,4.2-5.6c1.1,0.1,1.9,0.5,2.5,1.2
			c0.6,0.8,0.7,2,0.4,3.6l-2,8.8c-0.4,1.7-0.3,2.6,0.1,2.7c0.8,0.2,1.5-1.2,2-4.1h0.9c-0.3,3.9-1.7,5.8-4.2,5.6
			c-1.1-0.1-1.9-0.5-2.5-1.2c-0.6-0.8-0.8-2-0.4-3.6c0.6-2.5,1-4.5,1.3-5.9L-80.2,32.5z M-74.5,23.5c0,0.7-0.3,1.4-0.8,2
			c-0.6,0.5-1.2,0.8-2,0.8c-0.8,0-1.4-0.3-2-0.8c-0.6-0.6-0.8-1.2-0.8-2c0-0.8,0.3-1.4,0.8-2c0.6-0.6,1.2-0.9,2-0.8
			c0.8,0,1.4,0.3,2,0.8C-74.7,22.1-74.5,22.8-74.5,23.5z"/>
		<path class="st0" d="M-61.5,30.2c0.8,0.4,1.4,1,1.7,1.7c0.4,0.7,0.6,1.5,0.5,2.4c-0.1,0.7-0.3,1.3-0.7,1.7
			c-0.4,0.5-0.9,0.7-1.4,0.8c-0.4,0-0.8-0.1-1.1-0.4c-0.3-0.3-0.4-0.7-0.3-1.1c0-0.3,0.1-0.6,0.3-0.9c0.4-0.8,0.6-1.4,0.7-1.9
			c0.1-0.5-0.1-0.9-0.4-1.3c-0.5-0.7-1.4-0.9-2.5-0.7c-1.1,0.1-2.2,0.7-3.2,1.7c-1,1-1.7,2-2.2,3.1c-0.5,1.1-0.8,2.1-1,3.1
			c-1,5-0.2,7.8,2.4,8.2c1.5,0.2,2.9-0.2,4.2-1.2c1.5-1.2,2.8-2.8,3.9-4.9h0.8c-1.1,2.4-2.4,4.2-4,5.4c-1.6,1.3-3.4,1.9-5.5,1.9
			c-2.5,0-4.3-0.8-5.5-2.5c-1.1-1.7-1.4-3.8-1-6.4c0.5-2.6,1.8-4.8,3.9-6.7c2-1.8,4.4-2.8,7-2.8C-63.5,29.5-62.4,29.8-61.5,30.2z"/>
		<path d="M-52.6,34.1l-1.5,6.5h3.4l-0.2,0.8h-3.4l-2.9,12.9c-0.5,1.7-0.4,2.6,0,2.7c0.8,0.1,1.6-1.2,2.2-4.1h0.9
			c-0.3,4-1.8,5.8-4.3,5.6c-1.1-0.1-1.9-0.5-2.5-1.2c-0.6-0.8-0.7-2-0.3-3.6l2.8-12.3h-2.3l0.2-0.8h2.3l1.5-6.5H-52.6z"/>
		<path class="st2" d="M-90,24.5c-1.2,0-2.3,0.7-3.3,2.2c-1,1.5-1.7,3.2-2.2,5c-0.4,1.6-0.6,3.3-0.5,5.2c0.1,1.8,0.7,2.9,1.7,3
			c1.1,0.2,2.1-0.5,3.1-2c1-1.5,1.7-3.1,2-4.7l0.8-3.6C-87.7,26.2-88.2,24.5-90,24.5z"/>
		<g>
			<path class="st2" d="M-119.9,35.4c1.2-0.5,2.2-1.3,2.9-2.5c0.9-1.6,1.2-3.1,0.9-4.5c-0.3-1.1-0.8-1.7-1.7-1.7c0,0,0,0,0,0v0l0,0
				c-0.1,0-0.2,0-0.3,0c-1.3,0.1-2.6,1.2-3.8,3.2c-1.2,2-2,4.1-2.2,6.4C-122.5,36.2-121.1,35.9-119.9,35.4z"/>
			<path d="M-122.7,25.6l-0.7,1.1c0.4-0.2,0.8-0.4,1.2-0.6l0.3-0.4c1.3-2.1,2.8-3.2,4.6-3.2l0.2-0.7h-6.5l-0.2,0.7
				C-121.8,22.4-121.4,23.5-122.7,25.6z"/>
			<path class="st0" d="M-117.1,41.7c-1.1,0.8-2.2,1.2-3.4,1.2c-0.3,0-0.6,0-0.9-0.1c-2.1-0.4-3-2.3-2.8-5.8c1.4-0.1,2.7-0.3,4-0.6
				c1.3-0.3,2.6-0.8,3.7-1.4c1.2-0.6,2.2-1.4,2.9-2.3c0.8-0.9,1.2-2,1.2-3.1c0-1.3-0.4-2.3-1.5-3c-0.9-0.7-2.1-1-3.6-1
				c-0.1,0-0.2,0-0.2,0c-1.1,0-2.3,0.3-3.6,0.8c-0.6,0.3-1.2,0.6-1.8,0.9c-0.6,0.3-1.1,0.7-1.6,1.1c0,0,0,0,0,0
				c-2,1.8-3.2,3.8-3.7,6.1c0,0.2-0.1,0.4-0.2,0.6c-0.1,0.5-0.1,1-0.2,1.4c-0.1,1.9,0.2,3.6,1.1,4.9c1.2,1.7,3.1,2.6,5.5,2.6
				c2.1,0,4-0.6,5.6-1.9c1.5-1.3,2.9-3.1,4-5.5h-0.8C-114.3,39-115.6,40.6-117.1,41.7z M-121.9,29.9c1.3-2,2.5-3.1,3.8-3.2
				c0.1,0,0.2,0,0.3,0l0,0v0c0,0,0,0,0,0c0.9,0,1.5,0.6,1.7,1.7c0.3,1.4,0,2.9-0.9,4.5c-0.7,1.2-1.7,2-2.9,2.5
				c-1.2,0.5-2.6,0.8-4.3,0.9C-123.9,34-123.1,31.9-121.9,29.9z"/>
		</g>
		<path d="M-191,36.2h-0.9l-0.2,0.9h1c0-0.1,0.1-0.2,0.1-0.3C-191.1,36.6-191.1,36.4-191,36.2z"/>
		<path d="M-189.2,34.7l-0.3,1.5h-0.7c0,0.3,0,0.5-0.1,0.8c0,0,0,0.1,0,0.1h0.6l-0.7,3c0.4-1,0.7-1.9,0.9-3
			C-189.3,36.3-189.2,35.5-189.2,34.7z"/>
		<path d="M-191.1,36.8c0,0.1-0.1,0.2-0.1,0.3h0.9c0,0,0-0.1,0-0.1c0.1-0.3,0.1-0.5,0.1-0.8h-0.8C-191.1,36.4-191.1,36.6-191.1,36.8
			z"/>
		<path d="M-182.4,37.1h0.8c0.1-0.3,0.2-0.6,0.2-0.9h-0.9C-182.3,36.5-182.4,36.7-182.4,37.1z"/>
		<path d="M-168.1,36.5c0.3-0.3,0.4-0.7,0.3-1.3c0-0.7-0.2-1.3-0.6-1.8c-0.1-0.1-0.2-0.3-0.4-0.4c-0.6,1.1-1.1,2.2-1.4,3.4
			c0.2,0.2,0.5,0.4,0.8,0.5C-168.8,36.9-168.4,36.8-168.1,36.5z"/>
		<path d="M-99.3,34.6c0.3-0.3,0.4-0.7,0.3-1.3c0-0.7-0.2-1.2-0.6-1.7c-0.1-0.1-0.2-0.2-0.3-0.3c-0.1,0.4-0.3,0.8-0.4,1.2
			c-0.2,0.8-0.3,1.6-0.3,2.4c0.1,0,0.1,0.1,0.1,0.1C-99.9,35-99.5,34.9-99.3,34.6z"/>
		<path d="M-75.9,40.5c0,0.1,0,0.2-0.1,0.3c0,1,0.1,1.8,0.3,2.7c0.3-0.8,0.5-1.8,0.6-3H-75.9z"/>
		<path d="M-60.6,40.6l-0.2,0.8h0.6c0.1-0.3,0.3-0.5,0.4-0.8H-60.6z"/>
		<path class="st0" d="M-153.8,27.4c1.2,0.8,1.7,1.9,1.7,3.4c0,1.3-0.5,2.5-1.3,3.5c-0.8,1-1.9,1.9-3.2,2.6
			c-1.3,0.6-2.7,1.2-4.2,1.6c-1.4,0.4-2.9,0.6-4.5,0.7c-0.3,3.9,0.8,6.1,3.1,6.5c1.7,0.3,3.3-0.2,4.8-1.3c1.7-1.3,3.1-3.1,4.3-5.5
			h0.9c-1.2,2.7-2.7,4.7-4.4,6.1c-1.8,1.4-3.8,2.1-6.2,2.1c-2.8,0-4.8-1-6.2-2.9c-1.3-1.9-1.6-4.2-1.1-7.1c0.5-2.8,2-5.3,4.4-7.5
			c1.1-1,2.4-1.7,3.8-2.3c1.4-0.6,2.8-0.9,4.1-0.9C-156.3,26.3-154.9,26.6-153.8,27.4z M-162.9,31.1c-1.4,2.2-2.2,4.6-2.5,7.2
			c1.8-0.2,3.4-0.5,4.8-1c1.4-0.5,2.5-1.5,3.3-2.8c1-1.8,1.4-3.4,1-5c-0.3-1.4-1.1-2-2.2-1.9C-160,27.6-161.4,28.8-162.9,31.1z"/>
	</g>
	<g id="XMLID_225_">
		<path id="XMLID_224_" class="st0" d="M5.5,59.8c0,1.2,0.5,1.8,1.6,1.8C8,61.6,8.8,61,9.6,60c0.8-1,1.6-2.7,2.5-5.2l0.9-2.4h1.3
			l-1.6,4.8c-1.6,4.5-4.2,6.7-8,6.7c-3,0-4.6-1.4-4.6-4.2c0-1.3,0.3-2.9,0.9-4.9l10.8-35.4c0.2-0.8,0.3-1.4,0.3-1.8
			c0-0.9-0.3-1.5-1-1.9c-0.7-0.4-1.8-0.6-3.5-0.6L8,13.8c2.3,0,4.5-0.3,6.3-0.7c1.9-0.4,3.7-1.1,5.5-2L6,57.5
			C5.7,58.5,5.5,59.2,5.5,59.8"/>
		<path id="XMLID_223_" class="st0" d="M27.8,27.8c1.2-1.5,1.9-3,2-4.5c-1.3,1.1-2.4,1.7-3.5,1.7c-0.8,0-1.4-0.2-1.8-0.6
			c-0.4-0.4-0.7-1-0.7-1.7c0-0.9,0.3-1.8,0.9-2.8c0.6-0.9,1.4-1.7,2.3-2.3c0.9-0.6,1.9-0.9,2.9-0.9c1,0,1.7,0.4,2.2,1.1
			c0.5,0.7,0.7,1.6,0.7,2.7c0,1.5-0.4,3-1.2,4.6c-0.8,1.5-1.9,3-3.4,4.3c-1.5,1.4-3.2,2.5-5.2,3.5l-0.3-0.9
			C24.9,30.7,26.6,29.3,27.8,27.8"/>
		<path class="st0" d="M47,24.4c-2.7,2.8-4.9,6.4-6.6,10.8c-1.7,4.4-2.5,8.9-2.5,13.5c0,2.5,0.3,4.6,1,6.4c0.7,1.8,1.6,3.2,2.8,4.2
			c1.2,1,2.6,1.5,4.2,1.5c3,0,5.8-1.4,8.5-4.2c2.7-2.8,4.9-6.4,6.6-10.8c1.7-4.4,2.5-8.9,2.5-13.5c0-2.5-0.3-4.6-1-6.4
			c-0.7-1.8-1.6-3.2-2.9-4.2c-1.2-1-2.6-1.5-4.2-1.5C52.5,20.2,49.7,21.6,47,24.4 M34.7,34.6c2.1-4.5,5-8.1,8.7-11.1
			c3.7-2.9,7.9-4.4,12.6-4.4c2.9,0,5.3,0.5,7.4,1.6c2.1,1.1,3.6,2.7,4.7,4.8c1.1,2.1,1.6,4.6,1.6,7.5c0,4.3-1,8.7-3.1,13.2
			c-2.1,4.4-5,8.1-8.7,11c-3.7,2.9-7.9,4.4-12.6,4.4c-2.9,0-5.3-0.5-7.4-1.6c-2.1-1.1-3.6-2.7-4.7-4.8c-1.1-2.1-1.6-4.6-1.6-7.5
			C31.6,43.5,32.7,39.1,34.7,34.6"/>
		<path class="st0" d="M77.7,30.5c-1.1,1-2.1,2.4-3.1,4.1c-1,1.7-1.7,3.5-2.2,5.5c2.8-1,4.7-1.8,5.7-2.7c1-0.8,1.8-1.8,2.4-2.9
			c0.6-1.1,0.9-2.4,0.9-3.7c0-0.7-0.1-1.2-0.2-1.5c-0.1-0.2-0.3-0.4-0.5-0.4C79.8,28.9,78.8,29.5,77.7,30.5 M79.6,47.7
			c-0.9,0.8-1.9,1.5-2.9,2.1c-1.1,0.5-2.2,0.8-3.3,0.8c-1.7,0-3.1-0.5-4.1-1.5c-1-1-1.5-2.4-1.5-4.3c0-2.1,0.6-4.4,1.9-7.1
			c1.2-2.6,2.9-4.9,5-6.7c2.1-1.9,4.4-2.8,6.9-2.8c0.9,0,1.6,0.2,2.2,0.7c0.6,0.5,0.9,1.1,0.9,2c0,2.2-1.3,4.2-3.8,5.8
			c-2.5,1.7-5.4,3-8.7,4.1c-0.3,1.4-0.5,2.7-0.5,4c0,2.7,1,4,2.9,4c2.4,0,4.5-1.4,6.5-4.1l0.7,0.3C81.2,46,80.5,46.9,79.6,47.7"/>
		<path class="st0" d="M88.7,28.5c0.4-0.7,1-1.2,1.6-1.6c0.7-0.4,1.4-0.6,2.1-0.6c0.9,0,1.6,0.3,2.1,0.9c0.6,0.6,0.8,1.3,0.8,2.2
			c0,0.8-0.2,1.5-0.6,2.1c-0.4,0.7-1,1.2-1.6,1.6c-0.7,0.4-1.4,0.6-2.1,0.6c-0.9,0-1.6-0.3-2.1-0.8c-0.6-0.6-0.8-1.3-0.8-2.1
			C88,29.9,88.3,29.2,88.7,28.5 M86.8,43.2c0-1-0.4-1.5-1.3-1.5c-0.9,0-1.7,0.5-2.4,1.4c-0.7,0.9-1.4,2.4-2.2,4.5l-0.8,2.1H79
			l1.5-4.2c0.8-2.2,1.8-3.7,3.1-4.6c1.3-0.9,2.7-1.3,4.1-1.3c2.6,0,3.9,1.2,3.9,3.6c0,1.1-0.3,2.6-1,4.5l-6.3,17.5
			c-0.3,0.8-0.5,1.5-0.5,2.1c0,1,0.5,1.5,1.4,1.5c0.8,0,1.6-0.4,2.3-1.3c0.7-0.9,1.5-2.4,2.3-4.6l0.8-2.1h1.1L90.3,65
			c-0.8,2.1-1.8,3.6-3.1,4.5c-1.3,0.9-2.7,1.4-4.1,1.4c-2.7,0-4.1-1.2-4.1-3.5c0-1.2,0.3-2.7,1-4.6l6.3-17.5
			C86.6,44.5,86.8,43.8,86.8,43.2"/>
		<path id="XMLID_216_" class="st0" d="M96.6,62.4c0,1.5,0.7,2.2,2,2.2c1.1,0,2.2-0.6,3.2-1.9c1-1.3,2-3.5,3.1-6.6L106,53h1.6
			l-2.1,6.1c-2,5.8-5.4,8.6-10.2,8.6c-3.9,0-5.8-1.8-5.8-5.4c0-1.6,0.4-3.7,1.2-6.3l13.8-45.3c0.3-1,0.4-1.8,0.4-2.3
			c0-1.1-0.4-1.9-1.3-2.4c-0.9-0.5-2.4-0.8-4.4-0.8l0.6-1.8c3,0,5.7-0.3,8.1-0.9c2.4-0.6,4.7-1.4,7-2.5L97.1,59.5
			C96.8,60.7,96.6,61.7,96.6,62.4"/>
	</g>
</g>
<g id="Calque_2">
	<g id="XMLID_67_">
		<path id="XMLID_123_" d="M-464.8,24.7l-0.1,0.4c-1.3,0-2.1,0.6-2.4,1.9l-2.3,10c-0.4,1.7,0.6,2.6,2.9,2.6c0.9,0,1.7-0.1,2.4-0.3
			c0.7-0.2,1.4-0.7,2.1-1.3c0.7-0.6,1.2-1.4,1.6-2.4l0.4,0l-1.3,4.4h-13.4l0.1-0.4c1.3,0,2.1-0.7,2.4-1.9l2.5-10.7
			c0.3-1.3-0.2-1.9-1.5-1.9l0.1-0.4H-464.8z"/>
		<path id="XMLID_120_" d="M-451.8,31.7c0.7,0.5,1,1.2,1,2c0,0.8-0.3,1.5-0.8,2.1c-0.5,0.6-1.1,1.1-2,1.6c-0.8,0.4-1.6,0.7-2.5,0.9
			c-0.9,0.2-1.8,0.4-2.7,0.4c-0.2,2.4,0.5,3.7,1.9,3.9c1,0.2,2-0.1,2.9-0.8c1-0.8,1.9-1.9,2.6-3.4h0.5c-0.7,1.6-1.6,2.9-2.7,3.7
			c-1.1,0.8-2.3,1.3-3.8,1.3c-1.7,0-2.9-0.6-3.8-1.7c-0.8-1.1-1-2.6-0.7-4.3c0.3-1.7,1.2-3.2,2.7-4.5c0.7-0.6,1.4-1.1,2.3-1.4
			c0.9-0.4,1.7-0.5,2.5-0.6C-453.3,31-452.4,31.2-451.8,31.7z M-457.2,33.9c-0.8,1.4-1.3,2.8-1.5,4.3c1.1-0.1,2.1-0.3,2.9-0.6
			s1.5-0.9,2-1.7c0.6-1.1,0.8-2.1,0.6-3.1c-0.2-0.9-0.7-1.2-1.4-1.2C-455.5,31.8-456.4,32.5-457.2,33.9z"/>
		<path id="XMLID_118_" d="M-445.2,33.5c0.3,0.3,0.5,0.6,0.6,0.9c0.1,0.3,0.1,0.5,0,0.8c-0.1,0.3-0.3,0.5-0.6,0.5
			c-0.4,0-0.6-0.2-0.7-0.5c0-0.1,0-0.3,0-0.6c0-0.3,0-0.5,0-0.6c-0.1-0.2-0.2-0.4-0.3-0.5c-0.3-0.2-0.6-0.2-1-0.2
			c-0.8,0-1.3,0.3-1.5,0.9c-0.1,0.4-0.1,0.8,0.1,1.1c0.2,0.2,0.7,0.5,1.4,0.9c0.8,0.4,1.3,0.7,1.5,0.9c0.7,0.6,0.9,1.4,0.6,2.4
			c-0.2,0.7-0.7,1.3-1.5,1.8c-0.4,0.3-1,0.4-1.8,0.5c-0.9,0-1.7-0.2-2.2-0.6c-0.3-0.3-0.6-0.6-0.8-0.9c-0.2-0.3-0.2-0.7-0.2-1.1
			c0-0.3,0.2-0.6,0.4-0.8c0.2-0.2,0.4-0.2,0.6-0.2c0.2,0,0.4,0.1,0.5,0.2c0.1,0.1,0.2,0.3,0.1,0.6c0,0.2-0.1,0.4-0.3,0.6
			c-0.1,0.2-0.2,0.4-0.2,0.6c0,0.2,0.1,0.4,0.2,0.6c0.2,0.2,0.6,0.4,1.1,0.5c0.6,0.1,1.1,0.1,1.6-0.1c0.4-0.2,0.7-0.5,0.9-0.9
			c0.1-0.3,0.1-0.7,0-1c-0.1-0.2-0.3-0.4-0.6-0.6c-0.1-0.1-0.5-0.3-1.2-0.6c-0.4-0.2-0.7-0.4-1-0.6c-0.9-0.6-1.2-1.4-0.9-2.5
			c0.2-0.7,0.6-1.2,1.2-1.6c0.6-0.4,1.4-0.6,2.3-0.6C-446.2,32.9-445.6,33.1-445.2,33.5z"/>
		<path id="XMLID_115_" d="M-424.9,20.7l-0.6,3.7l-0.4,0.1c0.4-2.2-0.6-3.3-3-3.3h-3.9l-1.5,6.4h2c1.5,0,2.4-0.8,2.8-2.3h0.4
			l-1.2,5.1h-0.4c0.4-1.6-0.2-2.3-1.7-2.3h-2l-1.2,5c-0.4,1.7,0.6,2.6,2.9,2.6c3.3,0,5.3-1.4,6.1-4l0,1.4l-0.9,3h-13.4l0.1-0.4
			c1.3,0,2.1-0.7,2.4-1.9L-436,23c0.3-1.3-0.2-2-1.5-1.9l0.1-0.4H-424.9z M-429.7,17.3l-2.6,2.3l-0.4-0.3l2.2-3.4h2.4L-429.7,17.3z"
			/>
		<path id="XMLID_113_" d="M-423.5,32.7c0.7-1.8,1.7-2.7,3.1-2.7c0.9,0,1.5,0.3,2,0.9c0.3,0.4,0.4,0.8,0.4,1.3
			c0.7-1.4,1.6-2.1,2.8-2.1c0.9,0,1.5,0.3,2,0.9c0.4,0.6,0.5,1.4,0.3,2.4l-1.2,4.4c-0.2,0.9-0.2,1.4,0,1.5c0.5,0.1,0.9-0.7,1.2-2.2
			h0.5c-0.2,2.1-1,3.2-2.4,3.1c-0.6,0-1-0.3-1.3-0.7c-0.3-0.4-0.3-1.1-0.1-1.9l0.9-3.5c0.3-1.2,0.4-2,0.2-2.4
			c-0.2-0.4-0.5-0.6-1-0.5c-0.6,0.1-1.1,0.7-1.6,1.8c-0.6,1.2-1.2,3.6-1.9,6.9h-2.2l1.4-5.8c0.3-1.2,0.3-2,0.2-2.4
			c-0.2-0.4-0.5-0.6-1-0.5c-0.6,0.1-1.2,0.7-1.6,1.8c-0.6,1.2-1.2,3.6-1.9,6.9h-2.2l1.7-7.3c0.2-0.9,0.2-1.4-0.1-1.5
			c-0.4-0.1-0.8,0.6-1.2,2.3h-0.5c0.3-2.2,1.1-3.2,2.5-3.1C-423.4,30.1-423,31-423.5,32.7z"/>
		<path id="XMLID_110_" d="M-411.2,36c0.2-0.9,0.2-1.4-0.1-1.5c-0.5-0.1-0.8,0.7-1.1,2.3h-0.5c0.2-2.2,1-3.2,2.4-3.1
			c0.6,0,1.1,0.3,1.4,0.7c0.3,0.4,0.4,1.1,0.2,2l-1.1,4.9c-0.2,0.9-0.2,1.4,0.1,1.5c0.5,0.1,0.8-0.7,1.1-2.3h0.5
			c-0.2,2.2-1,3.2-2.4,3.1c-0.6,0-1.1-0.3-1.4-0.7c-0.4-0.4-0.4-1.1-0.2-2c0.3-1.4,0.6-2.5,0.7-3.3L-411.2,36z M-407.9,30.2
			c0,0.4-0.2,0.8-0.5,1.1c-0.3,0.3-0.7,0.5-1.1,0.5c-0.4,0-0.8-0.2-1.1-0.5c-0.3-0.3-0.5-0.7-0.5-1.1c0-0.4,0.2-0.8,0.5-1.1
			c0.3-0.3,0.7-0.5,1.1-0.5c0.4,0,0.8,0.2,1.1,0.5C-408.1,29.4-407.9,29.8-407.9,30.2z"/>
		<path id="XMLID_108_" d="M-403.9,32.9c0.9-1.9,2-2.8,3.5-2.8c0.9,0,1.6,0.3,2,0.9c0.5,0.6,0.6,1.4,0.3,2.4l-1.2,4.5
			c-0.3,1-0.2,1.5,0,1.6c0.5,0.1,0.9-0.7,1.2-2.3h0.5c-0.3,2.2-1.1,3.3-2.5,3.2c-0.6,0-1-0.3-1.3-0.7c-0.3-0.4-0.3-1.1-0.1-2
			l0.9-3.7c0.3-1.2,0.4-2,0.2-2.5c-0.2-0.4-0.5-0.6-1-0.5c-0.7,0.1-1.3,0.8-1.9,1.9c-0.7,1.2-1.4,3.6-2,7.1h-2.3l1.7-7.5
			c0.2-1,0.2-1.5,0-1.5c-0.4-0.1-0.9,0.7-1.2,2.3h-0.5c0.3-2.3,1.1-3.3,2.6-3.2C-403.8,30.2-403.5,31.1-403.9,32.9z"/>
		<path id="XMLID_105_" d="M-387.5,29.5c0.7,0.5,1.1,1.2,1.1,2.1c0,0.8-0.3,1.6-0.9,2.2c-0.5,0.7-1.2,1.2-2.1,1.6
			c-0.8,0.4-1.7,0.7-2.7,1c-0.9,0.2-1.9,0.4-2.9,0.5c-0.2,2.5,0.5,3.9,2,4.1c1.1,0.2,2.1-0.1,3-0.8c1.1-0.8,2-2,2.7-3.5h0.6
			c-0.8,1.7-1.7,3-2.8,3.9c-1.1,0.9-2.4,1.3-4,1.3c-1.8,0-3.1-0.6-4-1.8c-0.8-1.2-1-2.7-0.7-4.5c0.3-1.8,1.3-3.4,2.8-4.7
			c0.7-0.6,1.5-1.1,2.4-1.5c0.9-0.4,1.8-0.6,2.6-0.6C-389.1,28.8-388.2,29-387.5,29.5z M-393.2,31.9c-0.9,1.4-1.4,2.9-1.6,4.5
			c1.2-0.1,2.2-0.3,3-0.7c0.9-0.3,1.6-0.9,2.1-1.8c0.7-1.1,0.9-2.2,0.6-3.2c-0.2-0.9-0.7-1.3-1.4-1.2
			C-391.4,29.6-392.3,30.4-393.2,31.9z"/>
		<path id="XMLID_103_" d="M-382.9,36.4c1-2.1,2.3-3.2,4-3.2c1,0,1.8,0.3,2.3,1c0.5,0.7,0.6,1.6,0.3,2.8l-1.3,5.1
			c-0.3,1.1-0.3,1.7,0,1.8c0.5,0.1,1-0.8,1.4-2.6h0.6c-0.3,2.5-1.2,3.7-2.8,3.6c-0.7,0-1.2-0.3-1.5-0.8c-0.3-0.5-0.4-1.3-0.1-2.3
			l1.1-4.1c0.4-1.4,0.4-2.3,0.2-2.8c-0.2-0.5-0.6-0.7-1.2-0.6c-0.8,0.1-1.5,0.9-2.2,2.1c-0.8,1.4-1.6,4.1-2.3,8.1h-2.6l2-8.5
			c0.3-1.1,0.2-1.7,0-1.7c-0.5-0.1-1,0.7-1.4,2.6h-0.5c0.3-2.6,1.3-3.8,2.9-3.6C-382.8,33.3-382.3,34.4-382.9,36.4z"/>
		<path id="XMLID_101_" d="M-370.8,28.8l-0.9,3.9h2.1l-0.1,0.5h-2.1l-1.8,7.8c-0.3,1-0.3,1.6,0,1.7c0.5,0.1,1-0.7,1.3-2.5h0.5
			c-0.2,2.4-1.1,3.5-2.6,3.4c-0.6,0-1.2-0.3-1.5-0.7c-0.4-0.5-0.4-1.2-0.2-2.2l1.7-7.4h-1.4l0.1-0.5h1.4l0.9-3.9H-370.8z"/>
		<path id="XMLID_99_" d="M-364.8,37.5c0.4,0.4,0.7,0.8,0.8,1.3c0.1,0.4,0.1,0.8,0,1.1c-0.1,0.4-0.4,0.6-0.9,0.7
			c-0.5,0-0.9-0.2-1-0.7c-0.1-0.2-0.1-0.4-0.1-0.8c0-0.4,0-0.7,0-0.8c-0.1-0.3-0.2-0.5-0.4-0.6c-0.4-0.2-0.8-0.3-1.4-0.3
			c-1.2,0.1-1.9,0.5-2.2,1.2c-0.2,0.6-0.2,1.1,0.1,1.5c0.3,0.3,1,0.8,2,1.3c1.2,0.6,1.9,1,2.2,1.3c1,0.8,1.3,2,0.9,3.4
			c-0.3,1-1,1.9-2.1,2.6c-0.6,0.4-1.5,0.6-2.6,0.7c-1.3,0-2.4-0.2-3.1-0.8c-0.5-0.4-0.8-0.8-1.1-1.3c-0.2-0.4-0.3-1-0.3-1.6
			c0.1-0.5,0.2-0.9,0.5-1.1c0.2-0.2,0.5-0.3,0.9-0.3c0.3,0,0.5,0.1,0.7,0.3c0.2,0.2,0.2,0.5,0.2,0.8c0,0.2-0.2,0.5-0.4,0.9
			c-0.2,0.3-0.3,0.6-0.3,0.9c0,0.3,0.1,0.6,0.3,0.9c0.3,0.3,0.8,0.5,1.5,0.7c0.8,0.1,1.6,0.1,2.2-0.2c0.6-0.3,1.1-0.7,1.3-1.2
			c0.2-0.5,0.2-0.9,0-1.4c-0.1-0.3-0.4-0.6-0.9-0.9c-0.2-0.1-0.7-0.4-1.7-0.9c-0.5-0.3-1-0.5-1.4-0.8c-1.3-0.9-1.7-2-1.2-3.6
			c0.3-0.9,0.9-1.7,1.7-2.2c0.9-0.6,2-0.8,3.2-0.8C-366.2,36.6-365.4,36.9-364.8,37.5z"/>
		<path id="XMLID_96_" d="M-358,31l0.5-2.3c0.1-0.6,0-0.8-0.5-0.7l0.1-0.2l2-0.5c-0.6,2.8-1.2,5.2-1.7,7.2c-0.1,0.5-0.1,0.8,0,0.8
			c0.2,0,0.5-0.4,0.6-1.2h0.3c-0.1,1.2-0.5,1.7-1.3,1.7c-0.3,0-0.5-0.2-0.7-0.4c-0.2-0.2-0.2-0.6-0.1-1c-0.2,0.4-0.4,0.7-0.7,1
			c-0.3,0.3-0.7,0.4-1.1,0.4c-0.5,0-0.9-0.3-1.1-0.7c-0.2-0.5-0.3-1.1-0.1-1.9c0.2-0.8,0.5-1.4,1-1.9c0.5-0.5,1.1-0.7,1.6-0.7
			C-358.7,30.5-358.3,30.7-358,31z M-359.8,31.5c-0.3,0.4-0.5,0.9-0.6,1.5c-0.1,0.5-0.2,1-0.1,1.5c0,0.5,0.2,0.8,0.5,0.9
			c0.3,0.1,0.6-0.1,0.9-0.6c0.3-0.4,0.5-0.9,0.6-1.4l0.2-1c0.2-1,0.1-1.5-0.5-1.5C-359.1,30.8-359.5,31-359.8,31.5z"/>
		<path id="XMLID_93_" d="M-353.1,32c0.3,0.2,0.4,0.4,0.4,0.8c0,0.3-0.1,0.6-0.3,0.8c-0.2,0.2-0.4,0.4-0.8,0.6
			c-0.3,0.2-0.6,0.3-1,0.4c-0.3,0.1-0.7,0.1-1.1,0.2c-0.1,0.9,0.2,1.4,0.7,1.5c0.4,0.1,0.8,0,1.1-0.3c0.4-0.3,0.7-0.7,1-1.3h0.2
			c-0.3,0.6-0.6,1.1-1,1.4c-0.4,0.3-0.9,0.5-1.5,0.5c-0.6,0-1.1-0.2-1.5-0.7c-0.3-0.4-0.4-1-0.3-1.7c0.1-0.7,0.5-1.2,1-1.7
			c0.3-0.2,0.6-0.4,0.9-0.5c0.3-0.1,0.7-0.2,0.9-0.2C-353.7,31.7-353.4,31.8-353.1,32z M-355.2,32.8c-0.3,0.5-0.5,1.1-0.6,1.7
			c0.4,0,0.8-0.1,1.1-0.2c0.3-0.1,0.6-0.3,0.8-0.6c0.2-0.4,0.3-0.8,0.2-1.2c-0.1-0.3-0.3-0.5-0.5-0.4
			C-354.6,32-354.9,32.3-355.2,32.8z"/>
		<path id="XMLID_89_" d="M-340.5,28.2c1.1,0,2,0.3,2.7,1c0.6,0.7,0.8,1.5,0.6,2.5c-0.2,1-0.8,1.8-1.7,2.5c-0.9,0.7-1.9,1.1-3.1,1.1
			h0.8c1.1,0,2,0.4,2.7,1.2c0.7,0.8,0.8,1.7,0.6,2.9c-0.2,1.1-0.9,2.1-1.9,2.9c-1,0.8-2.1,1.2-3.2,1.2h-9.6l0.1-0.4
			c1.3,0,2.1-0.6,2.4-1.9l2.5-10.7c0.3-1.3-0.2-1.9-1.5-1.9l0.1-0.4H-340.5z M-347.5,41.5c-0.1,0.5,0,0.8,0.2,1.2
			c0.3,0.3,0.8,0.5,1.6,0.5c1.1,0,2.1-0.3,3.1-1c1-0.7,1.6-1.6,1.9-2.7c0.2-1.1,0.2-2-0.2-2.7c-0.4-0.7-1-1.1-2-1.1h-3.3
			L-347.5,41.5z M-346.1,35.2h2.2c1,0,1.8-0.3,2.5-0.9c0.7-0.6,1.2-1.4,1.4-2.4c0.2-1,0.2-1.7-0.3-2.3c-0.4-0.6-1.1-0.9-2-0.9h-2.2
			L-346.1,35.2z"/>
		<path id="XMLID_86_" d="M-330.3,35.7c0.6,0.9,0.8,2,0.5,3.3c-0.2,1.3-0.9,2.5-1.9,3.4c-1,0.9-2.1,1.4-3.4,1.4
			c-1.2,0-2.1-0.4-2.8-1.3c-0.7-0.9-0.9-1.9-0.6-3.2c0.3-1.3,0.9-2.5,1.9-3.4c1-0.9,2.2-1.4,3.5-1.4
			C-331.8,34.4-330.8,34.8-330.3,35.7z M-335,36.2c-0.5,0.8-0.9,1.9-1.2,3.1c-0.2,1.2-0.2,2.1,0,2.9c0.2,0.8,0.6,1.2,1.2,1.2
			c0.6,0,1.1-0.4,1.7-1.3c0.6-0.8,1-1.8,1.2-3.1c0.2-1.2,0.2-2.3,0-3c-0.2-0.8-0.6-1.1-1.2-1.1C-333.9,34.9-334.4,35.3-335,36.2z"/>
		<path id="XMLID_84_" d="M-324.6,44.5c-0.8,1.8-2,2.7-3.4,2.7c-0.8,0-1.5-0.3-2-0.9c-0.4-0.6-0.5-1.4-0.3-2.3l1.1-4.3
			c0.2-0.9,0.2-1.4,0-1.5c-0.5-0.1-0.9,0.7-1.2,2.4l-0.5-0.1c0.3-2.1,1.1-3.2,2.4-3.1c0.6,0,1,0.3,1.3,0.7c0.3,0.4,0.3,1.1,0.1,1.9
			l-0.9,3.4c-0.3,1.2-0.3,2-0.1,2.4c0.2,0.4,0.5,0.6,1,0.5c0.6-0.1,1.3-0.7,1.9-1.8c0.7-1.2,1.3-3.5,1.9-6.9h2.2l-1.7,7.3
			c-0.2,0.9-0.2,1.4,0,1.5c0.4,0.1,0.8-0.6,1.2-2.2h0.5c-0.3,2.2-1.1,3.2-2.5,3.1C-324.7,47.2-325.1,46.3-324.6,44.5z"/>
		<path id="XMLID_82_" d="M-317,41.7c0.4-1.2,1.2-1.9,2.1-2.1c0.6-0.1,1.1-0.1,1.6,0.1c0.5,0.2,0.9,0.5,1.2,0.9
			c0.2,0.3,0.4,0.7,0.4,1.2c0,0.4-0.1,0.7-0.2,0.9c-0.2,0.2-0.4,0.3-0.8,0.3c-0.3-0.1-0.5-0.2-0.6-0.4c-0.1-0.1-0.2-0.4-0.3-0.8
			c-0.1-0.5-0.3-0.8-0.4-0.9c-0.2-0.3-0.4-0.4-0.7-0.4c-0.5,0-0.9,0.2-1.2,0.6c-0.4,0.5-0.8,1.7-1.3,3.6l-1.3,5.7h-2.6l1.9-8.2
			c0.3-1,0.2-1.6,0-1.7c-0.5-0.1-1,0.7-1.4,2.5h-0.5c0.3-2.3,1.2-3.5,2.6-3.5C-317.5,39.6-317,40.3-317,41.7z"/>
		<path id="XMLID_79_" d="M-302.2,30c0.3,0.3,0.7,0.5,1.2,0.5c0.6,0,1.2-0.6,1.8-1.7h0.5l-3.1,13.4c-0.5,2.1-1.4,3.7-2.6,4.8
			c-1.5,1.3-3.2,1.9-5.2,1.8c-1,0-1.8-0.2-2.4-0.6c-0.6-0.3-1-0.7-1.2-1.2c-0.3-0.5-0.4-1.1-0.3-1.7c0.1-0.6,0.3-1,0.5-1.3
			c0.3-0.4,0.7-0.5,1-0.5c0.3,0,0.6,0.1,0.8,0.3c0.2,0.2,0.3,0.5,0.2,0.8c-0.1,0.2-0.1,0.4-0.3,0.6c-0.3,0.6-0.5,1-0.5,1.3
			c-0.1,0.4,0,0.7,0.3,1c0.3,0.4,0.9,0.6,1.8,0.6c0.6,0,1.1-0.1,1.6-0.3c0.5-0.2,0.9-0.5,1.2-0.8c0.3-0.3,0.6-0.8,0.9-1.3
			c0.4-0.8,0.8-1.9,1.1-3.1c0.5-2.1,0.9-3.4,1-4c-0.4,1-1,1.9-1.8,2.6c-0.8,0.7-1.7,1-2.8,1c-1.3-0.1-2.2-0.7-2.8-1.8
			c-0.6-1.3-0.7-2.8-0.3-4.7c0.5-2,1.4-3.6,2.6-4.9c1.3-1.3,2.6-1.9,4.1-1.9C-304,28.7-303.1,29.1-302.2,30z M-306.6,31.2
			c-0.8,1.2-1.3,2.4-1.6,3.7c-0.3,1.2-0.4,2.5-0.4,3.7c0.1,1.3,0.5,2.1,1.2,2.2c0.8,0.1,1.5-0.3,2.2-1.4c0.7-1.1,1.2-2.2,1.5-3.4
			l0.6-2.6c0.5-2.5,0.1-3.7-1.2-3.7C-305.1,29.6-305.9,30.1-306.6,31.2z"/>
		<path id="XMLID_76_" d="M-292.7,39.2c0.6,0.9,0.8,2,0.5,3.3c-0.2,1.3-0.9,2.5-1.9,3.4c-1,0.9-2.2,1.4-3.4,1.4
			c-1.2,0-2.2-0.4-2.8-1.3c-0.7-0.9-0.9-2-0.6-3.2c0.3-1.4,0.9-2.5,1.9-3.4c1-0.9,2.2-1.4,3.5-1.4C-294.2,38-293.3,38.4-292.7,39.2z
			 M-297.5,39.8c-0.5,0.8-0.9,1.9-1.2,3.1c-0.2,1.2-0.2,2.2,0,3c0.2,0.8,0.7,1.2,1.2,1.2c0.6,0,1.2-0.4,1.7-1.3
			c0.6-0.8,1-1.8,1.2-3.1c0.2-1.3,0.2-2.3,0-3.1c-0.2-0.8-0.6-1.1-1.3-1.1C-296.3,38.5-296.9,38.9-297.5,39.8z"/>
		<path id="XMLID_73_" d="M-284.2,40.1c0.3,0.3,0.6,0.4,1,0.4c0.5,0,1-0.5,1.5-1.4h0.4l-2.6,11.1c-0.4,1.8-1.1,3.1-2.2,4
			c-1.2,1-2.7,1.6-4.3,1.5c-0.8,0-1.5-0.2-2-0.5c-0.5-0.3-0.8-0.6-1-1c-0.2-0.4-0.3-0.9-0.3-1.4c0.1-0.5,0.2-0.8,0.4-1.1
			c0.3-0.3,0.5-0.4,0.9-0.4c0.3,0,0.5,0.1,0.6,0.2c0.2,0.2,0.2,0.4,0.2,0.7c0,0.2-0.1,0.4-0.2,0.5c-0.3,0.5-0.4,0.8-0.5,1.1
			c-0.1,0.3,0,0.6,0.2,0.8c0.3,0.3,0.8,0.5,1.5,0.5c0.5,0,1-0.1,1.4-0.3c0.4-0.2,0.8-0.4,1-0.7c0.3-0.3,0.5-0.6,0.7-1.1
			c0.4-0.7,0.7-1.6,0.9-2.6c0.4-1.7,0.7-2.9,0.8-3.4c-0.3,0.9-0.8,1.6-1.5,2.2c-0.7,0.6-1.4,0.9-2.3,0.8c-1.1-0.1-1.9-0.6-2.3-1.5
			c-0.5-1.1-0.6-2.4-0.2-3.9c0.4-1.7,1.1-3,2.2-4.1c1.1-1.1,2.2-1.6,3.4-1.6C-285.6,39.1-284.9,39.4-284.2,40.1z M-287.8,41.2
			c-0.6,1-1.1,2-1.3,3c-0.2,1-0.3,2.1-0.3,3.1c0.1,1.1,0.4,1.7,1,1.8c0.6,0.1,1.3-0.3,1.9-1.2c0.6-0.9,1-1.9,1.2-2.8l0.5-2.2
			c0.4-2,0.1-3.1-1-3.1C-286.5,39.8-287.2,40.3-287.8,41.2z"/>
		<path id="XMLID_71_" d="M-278.8,38.9c0.7-1.5,1.7-2.3,2.8-2.3c0.7,0,1.3,0.2,1.6,0.7c0.4,0.5,0.5,1.1,0.2,2l-0.9,3.6
			c-0.2,0.8-0.2,1.2,0,1.3c0.4,0.1,0.7-0.6,1-1.9h0.4c-0.2,1.8-0.9,2.6-2,2.6c-0.5,0-0.8-0.2-1.1-0.6c-0.2-0.4-0.3-0.9-0.1-1.6
			l0.7-3c0.3-1,0.3-1.6,0.1-2c-0.1-0.4-0.4-0.5-0.8-0.4c-0.5,0.1-1.1,0.6-1.6,1.5c-0.6,1-1.1,2.9-1.6,5.7h-1.9l1.4-6.1
			c0.2-0.8,0.2-1.2,0-1.2c-0.4-0.1-0.7,0.5-1,1.9h-0.4c0.2-1.8,0.9-2.7,2.1-2.6C-278.7,36.7-278.4,37.4-278.8,38.9z"/>
		<path id="XMLID_68_" d="M-265.2,37.6c0.6,0.4,0.9,1,0.9,1.8c0,0.7-0.3,1.3-0.7,1.9c-0.4,0.6-1,1-1.7,1.4c-0.7,0.3-1.4,0.6-2.2,0.8
			c-0.8,0.2-1.6,0.3-2.4,0.4c-0.2,2.1,0.4,3.3,1.7,3.5c0.9,0.1,1.8-0.1,2.6-0.7c0.9-0.7,1.7-1.7,2.3-3h0.5c-0.7,1.4-1.5,2.5-2.4,3.3
			c-0.9,0.7-2.1,1.1-3.4,1.1c-1.5,0-2.6-0.5-3.3-1.5c-0.7-1-0.9-2.3-0.6-3.8c0.3-1.5,1.1-2.8,2.4-4c0.6-0.5,1.3-0.9,2-1.3
			c0.8-0.3,1.5-0.5,2.2-0.5C-266.6,37-265.8,37.2-265.2,37.6z M-270.1,39.6c-0.7,1.2-1.2,2.5-1.4,3.8c1-0.1,1.8-0.3,2.6-0.6
			c0.7-0.3,1.3-0.8,1.8-1.5c0.6-0.9,0.7-1.8,0.5-2.7c-0.2-0.8-0.6-1.1-1.2-1C-268.6,37.7-269.3,38.3-270.1,39.6z"/>
	</g>
	<g id="XMLID_344_">
	</g>
	<g id="XMLID_345_">
	</g>
	<g id="XMLID_346_">
	</g>
	<g id="XMLID_347_">
	</g>
	<g id="XMLID_348_">
	</g>
	<g id="XMLID_349_">
	</g>
</g>
</svg>
