<?xml version="1.0" encoding="utf-8"?>
<!-- Generator: Adobe Illustrator 19.0.0, SVG Export Plug-In . SVG Version: 6.00 Build 0)  -->
<svg version="1.1" xmlns="http://www.w3.org/2000/svg" xmlns:xlink="http://www.w3.org/1999/xlink" x="0px" y="0px"
	 viewBox="0 0 92.5 90.1" style="enable-background:new 0 0 92.5 90.1;" xml:space="preserve">
<style type="text/css">
	.st0{display:none;}
	.st1{display:inline;}
	.st2{fill:#E5C25C;}
</style>
<g id="Calque_1" class="st0">
	<g id="XMLID_27_" class="st1">
		<path id="XMLID_36_" class="st2" d="M12,40.3h4c0-0.2,0-0.3,0-0.5V33c0-1.4,1.2-2.6,2.6-2.6c1.4,0,2.6,1.2,2.6,2.6v6.7
			c0,5.3,4.3,9.6,9.6,9.6h2c10,0,12.2,9.3,14.4,18.3v0l3,12.7c0.4,1.5,1.3,2.8,2.6,3.6c1.3,0.8,2.9,1.1,4.4,0.7
			c1.5-0.4,2.8-1.3,3.6-2.6c0.8-1.3,1.1-2.9,0.7-4.4L59,67.5c-0.3-1.4,0.5-2.8,1.9-3.1c0.2,0,0.4-0.1,0.6-0.1c1.2,0,2.2,0.8,2.5,2
			l2.4,10.2c0.7,2.9,0.2,5.8-1.3,8.3c-1.5,2.5-4,4.3-6.8,5c-2.9,0.7-5.8,0.2-8.3-1.3c-2.5-1.5-4.3-4-5-6.8l-3-12.7l0,0
			c-2.8-11.5-4.6-14.3-9.3-14.3h-2c-6.1,0-11.4-3.8-13.6-9.1c-0.2,0-0.4,0.1-0.5,0.1H12c-6.6,0-12-5.4-12-12V21c0-2.9,1-5.7,2.9-7.9
			c0.5-0.6,1.2-0.9,2-0.9c0.6,0,1.2,0.2,1.7,0.6c1.1,0.9,1.2,2.6,0.3,3.7c-1.1,1.2-1.7,2.8-1.7,4.4v12.5C5.2,37.3,8.2,40.3,12,40.3"
			/>
		<path id="XMLID_35_" class="st2" d="M30.7,5.2c-5.3,0-9.6,4.3-9.6,9.6v5.1c0,1.4-1.2,2.6-2.6,2.6c-1.4,0-2.6-1.2-2.6-2.6v-5.1
			C15.9,6.6,22.5,0,30.7,0c1.4,0,2.6,1.2,2.6,2.6C33.3,4,32.1,5.2,30.7,5.2"/>
		<path id="XMLID_29_" class="st2" d="M74.1,5.2H56.3c-2.2,0-3.9,1.8-3.9,3.9c0,2.2,1.8,3.9,3.9,3.9h17.8c2.2,0,3.9-1.8,3.9-3.9
			C78,7,76.3,5.2,74.1,5.2 M52.4,26.2h24.8c2.2,0,3.9-1.8,3.9-3.9c0-2.2-1.8-3.9-3.9-3.9H52.4c-2.2,0-3.9,1.8-3.9,3.9
			C48.5,24.4,50.3,26.2,52.4,26.2 M47.8,39.3h32.5c2.2,0,3.9-1.8,3.9-3.9c0-2.2-1.8-3.9-3.9-3.9H47.8c-2.2,0-3.9,1.8-3.9,3.9
			C43.9,37.5,45.6,39.3,47.8,39.3 M54.6,48.5c0,2.2,1.8,3.9,3.9,3.9h24.7c2.2,0,3.9-1.8,3.9-3.9c0-2.2-1.8-3.9-3.9-3.9H58.6
			C56.4,44.5,54.6,46.3,54.6,48.5 M83.3,57.6H58.6c-5.1,0-9.2-4.1-9.2-9.2c0-1.4,0.3-2.7,0.9-3.9h-2.5c-5,0-9.2-4.1-9.2-9.2
			c0-3.9,2.4-7.2,5.9-8.5c-0.8-1.3-1.2-2.9-1.2-4.6c0-3.7,2.2-6.8,5.2-8.3c-0.9-1.4-1.4-3.1-1.4-4.8c0-5.1,4.1-9.2,9.2-9.2h17.8
			c5.1,0,9.2,4.1,9.2,9.2c0,1.9-0.6,3.7-1.6,5.1c2.8,1.6,4.7,4.6,4.7,8c0,1.9-0.6,3.7-1.6,5.1c2.8,1.6,4.7,4.6,4.7,8
			c0,1.9-0.6,3.7-1.6,5.1c2.8,1.6,4.7,4.6,4.7,8C92.5,53.5,88.4,57.6,83.3,57.6"/>
		<path id="XMLID_28_" class="st2" d="M40,5.2c-1.4,0-2.6-1.2-2.6-2.6C37.4,1.2,38.6,0,40,0h0c1.4,0,2.6,1.2,2.6,2.6
			C42.6,4,41.4,5.2,40,5.2"/>
	</g>
</g>
<g id="Calque_3">
	<g id="XMLID_39_">
		<path id="XMLID_48_" class="st2" d="M12,49.8h4c0,0.2,0,0.3,0,0.5v6.7c0,1.4,1.2,2.6,2.6,2.6c1.4,0,2.6-1.2,2.6-2.6v-6.7
			c0-5.3,4.3-9.6,9.6-9.6h2c10,0,12.2-9.3,14.4-18.3v0l3-12.7c0.4-1.5,1.3-2.8,2.6-3.6c1.3-0.8,2.9-1.1,4.4-0.7
			c1.5,0.4,2.8,1.3,3.6,2.6c0.8,1.3,1.1,2.9,0.7,4.4L59,22.6c-0.3,1.4,0.5,2.8,1.9,3.1c0.2,0,0.4,0.1,0.6,0.1c1.2,0,2.2-0.8,2.5-2
			l2.4-10.2c0.7-2.9,0.2-5.8-1.3-8.3c-1.5-2.5-4-4.3-6.8-5c-2.9-0.7-5.8-0.2-8.3,1.3c-2.5,1.5-4.3,4-5,6.8l-3,12.7l0,0
			c-2.8,11.5-4.6,14.3-9.3,14.3h-2c-6.1,0-11.4,3.8-13.6,9.1c-0.2,0-0.4-0.1-0.5-0.1H12c-6.6,0-12,5.4-12,12v12.5
			c0,2.9,1,5.7,2.9,7.9c0.5,0.6,1.2,0.9,2,0.9c0.6,0,1.2-0.2,1.7-0.6c1.1-0.9,1.2-2.6,0.3-3.7c-1.1-1.2-1.7-2.8-1.7-4.4V56.6
			C5.2,52.8,8.2,49.8,12,49.8"/>
		<path id="XMLID_47_" class="st2" d="M30.7,84.9c-5.3,0-9.6-4.3-9.6-9.6v-5.1c0-1.4-1.2-2.6-2.6-2.6c-1.4,0-2.6,1.2-2.6,2.6v5.1
			c0,8.1,6.6,14.8,14.8,14.8c1.4,0,2.6-1.2,2.6-2.6C33.3,86,32.1,84.9,30.7,84.9"/>
		<path id="XMLID_41_" class="st2" d="M74.1,84.9H56.3c-2.2,0-3.9-1.8-3.9-3.9c0-2.2,1.8-3.9,3.9-3.9h17.8c2.2,0,3.9,1.8,3.9,3.9
			C78,83.1,76.3,84.9,74.1,84.9 M52.4,63.9h24.8c2.2,0,3.9,1.8,3.9,3.9c0,2.2-1.8,3.9-3.9,3.9H52.4c-2.2,0-3.9-1.8-3.9-3.9
			C48.5,65.7,50.3,63.9,52.4,63.9 M47.8,50.8h32.5c2.2,0,3.9,1.8,3.9,3.9c0,2.2-1.8,3.9-3.9,3.9H47.8c-2.2,0-3.9-1.8-3.9-3.9
			C43.9,52.6,45.6,50.8,47.8,50.8 M54.6,41.6c0-2.2,1.8-3.9,3.9-3.9h24.7c2.2,0,3.9,1.8,3.9,3.9c0,2.2-1.8,3.9-3.9,3.9H58.6
			C56.4,45.6,54.6,43.8,54.6,41.6 M83.3,32.5H58.6c-5.1,0-9.2,4.1-9.2,9.2c0,1.4,0.3,2.7,0.9,3.9h-2.5c-5,0-9.2,4.1-9.2,9.2
			c0,3.9,2.4,7.2,5.9,8.5c-0.8,1.3-1.2,2.9-1.2,4.6c0,3.7,2.2,6.8,5.2,8.3c-0.9,1.4-1.4,3.1-1.4,4.8c0,5.1,4.1,9.2,9.2,9.2h17.8
			c5.1,0,9.2-4.1,9.2-9.2c0-1.9-0.6-3.7-1.6-5.1c2.8-1.6,4.7-4.6,4.7-8c0-1.9-0.6-3.7-1.6-5.1c2.8-1.6,4.7-4.6,4.7-8
			c0-1.9-0.6-3.7-1.6-5.1c2.8-1.6,4.7-4.6,4.7-8C92.5,36.6,88.4,32.5,83.3,32.5"/>
		<path id="XMLID_40_" class="st2" d="M40,84.9c-1.4,0-2.6,1.2-2.6,2.6c0,1.4,1.2,2.6,2.6,2.6h0c1.4,0,2.6-1.2,2.6-2.6
			C42.6,86,41.4,84.9,40,84.9"/>
	</g>
</g>
</svg>
